<?xml version="1.0" encoding="utf-8"?>
<!-- Generator: Adobe Illustrator 19.0.0, SVG Export Plug-In . SVG Version: 6.00 Build 0)  -->
<svg version="1.1" id="Layer_1" xmlns="http://www.w3.org/2000/svg" xmlns:xlink="http://www.w3.org/1999/xlink" x="0px" y="0px"
	 viewBox="-205 356.5 200.1 80.5" style="enable-background:new -205 356.5 200.1 80.5;" xml:space="preserve">
<style type="text/css">
	.st0{fill:url(#SVGID_1_);}
	.st1{fill:url(#SVGID_2_);}
	.st2{opacity:0.43;fill:url(#SVGID_3_);enable-background:new    ;}
	.st3{fill:url(#SVGID_4_);}
	.st4{fill:url(#SVGID_5_);}
	.st5{fill:url(#SVGID_6_);}
	.st6{fill:url(#SVGID_7_);}
	.st7{fill:url(#SVGID_8_);}
	.st8{fill:url(#SVGID_9_);}
	.st9{opacity:0.25;fill:#13A64A;enable-background:new    ;}
	.st10{fill:url(#SVGID_10_);}
	.st11{opacity:0.17;fill:url(#SVGID_11_);enable-background:new    ;}
	.st12{fill:#FFFFFF;}
	.st13{enable-background:new    ;}
</style>
<linearGradient id="SVGID_1_" gradientUnits="userSpaceOnUse" x1="-247.0258" y1="367.3016" x2="-214.8053" y2="367.3016" gradientTransform="matrix(0.9487 -0.316 -0.316 -0.9487 309.3894 667.7236)">
	<stop  offset="0" style="stop-color:#282561"/>
	<stop  offset="0.5" style="stop-color:#673090"/>
	<stop  offset="0.6733" style="stop-color:#652F8D"/>
	<stop  offset="0.7998" style="stop-color:#5D2D85"/>
	<stop  offset="0.911" style="stop-color:#4F2B75"/>
	<stop  offset="1" style="stop-color:#3E2563"/>
</linearGradient>
<path class="st0" d="M-39.1,390.4c0,0,3.5,1.7,20-2.1c3.7-0.9,6.1-1.4,8.4-1.1c0,0,2,2.1-2.5,4.1s-11,6.7-11,6.7s-9.2,2.3-10.1,2.3
	c-0.9-0.1-4.6,0.4-6.7-3C-43,393.9-39.1,390.4-39.1,390.4z"/>
<linearGradient id="SVGID_2_" gradientUnits="userSpaceOnUse" x1="-247.0258" y1="367.3016" x2="-214.8053" y2="367.3016" gradientTransform="matrix(0.9487 -0.316 -0.316 -0.9487 309.3894 667.7236)">
	<stop  offset="0" style="stop-color:#19234D"/>
	<stop  offset="0.1136" style="stop-color:#32245C;stop-opacity:0.8864"/>
	<stop  offset="0.2834" style="stop-color:#56286E;stop-opacity:0.7166"/>
	<stop  offset="0.4564" style="stop-color:#702A7D;stop-opacity:0.5436"/>
	<stop  offset="0.6319" style="stop-color:#832886;stop-opacity:0.3681"/>
	<stop  offset="0.8111" style="stop-color:#8E298C;stop-opacity:0.1889"/>
	<stop  offset="1" style="stop-color:#922A8E;stop-opacity:0"/>
</linearGradient>
<path class="st1" d="M-39.1,390.4c0,0,3.5,1.7,20-2.1c3.7-0.9,6.1-1.4,8.4-1.1c0,0,2,2.1-2.5,4.1s-11,6.7-11,6.7s-9.2,2.3-10.1,2.3
	c-0.9-0.1-4.6,0.4-6.7-3C-43,393.9-39.1,390.4-39.1,390.4z"/>
<linearGradient id="SVGID_3_" gradientUnits="userSpaceOnUse" x1="-246.9863" y1="366.8112" x2="-220.2388" y2="366.8112" gradientTransform="matrix(0.9487 -0.316 -0.316 -0.9487 309.3894 667.7236)">
	<stop  offset="0" style="stop-color:#922A8E;stop-opacity:0"/>
	<stop  offset="0.1214" style="stop-color:#982E91;stop-opacity:0.1214"/>
	<stop  offset="0.429" style="stop-color:#A03792;stop-opacity:0.429"/>
	<stop  offset="1" style="stop-color:#A23991"/>
</linearGradient>
<path class="st2" d="M-28.8,395.5c-9.8,2.5-9.5,0.2-9.5,0.2s-1.1-1.7-2.2-3.7c-0.9,1.3-1.7,3.3-0.5,5.2c2.1,3.4,5.9,2.9,6.7,3
	c0.9,0.1,10.1-2.3,10.1-2.3s5.1-3.8,9.5-6C-18.2,392.7-23.2,394.1-28.8,395.5z"/>
<linearGradient id="SVGID_4_" gradientUnits="userSpaceOnUse" x1="-249.9428" y1="377.9777" x2="-207.0399" y2="377.9777" gradientTransform="matrix(0.9487 -0.316 -0.316 -0.9487 309.3894 667.7236)">
	<stop  offset="0" style="stop-color:#2075BC"/>
	<stop  offset="0.5" style="stop-color:#2BACE2"/>
	<stop  offset="1" style="stop-color:#62C8D5"/>
</linearGradient>
<path class="st3" d="M-11.9,359.9c0,0,7.9,9-7.8,20.6C-36.6,393-41,400.3-34,400.2c0,0-9.7,2.4-11.3-6.9c-0.9-5.5,2.7-8.8,7.2-12.5
	C-38.1,380.8-22.4,369.6-11.9,359.9z"/>
<linearGradient id="SVGID_5_" gradientUnits="userSpaceOnUse" x1="-234.184" y1="333.9655" x2="-234.184" y2="351.1143" gradientTransform="matrix(0.9487 -0.316 -0.316 -0.9487 309.3894 667.7236)">
	<stop  offset="0" style="stop-color:#D91F5D"/>
	<stop  offset="0.5" style="stop-color:#9E2064"/>
	<stop  offset="1" style="stop-color:#9E2064"/>
</linearGradient>
<path class="st4" d="M-20.1,407.5c0,0-5.3,9.1,4.5,16.4c0.1,0.1,0,0.2-0.1,0.2c-1.6-0.5-4.1-1.6-6.1-2.7
	C-27.9,417.9-23.2,410.8-20.1,407.5z"/>
<linearGradient id="SVGID_6_" gradientUnits="userSpaceOnUse" x1="-234.1006" y1="333.9655" x2="-234.1006" y2="351.1143" gradientTransform="matrix(0.9487 -0.316 -0.316 -0.9487 309.3894 667.7236)">
	<stop  offset="0" style="stop-color:#D91F5D"/>
	<stop  offset="0.9951" style="stop-color:#351840"/>
</linearGradient>
<path class="st5" d="M-20.1,407.5c0,0-5.3,9.1,4.5,16.4c0.1,0.1,0,0.2-0.1,0.2c-1.6-0.5-5.2-1.9-6.8-3.4
	C-27.6,415.9-23.2,410.8-20.1,407.5z"/>
<linearGradient id="SVGID_7_" gradientUnits="userSpaceOnUse" x1="-241.098" y1="353.0256" x2="-210.8669" y2="353.0256" gradientTransform="matrix(0.9487 -0.316 -0.316 -0.9487 309.3894 667.7236)">
	<stop  offset="0" style="stop-color:#EE2E7C"/>
	<stop  offset="0.5" style="stop-color:#D91F5D"/>
	<stop  offset="1" style="stop-color:#9E2064"/>
</linearGradient>
<path class="st6" d="M-4.9,391.9c-0.3-4.3-6.2-4.8-6.2-4.8c3.5,1.9-7.3,4.2-15.2,13.1c-5.6,6.3-3.4,12.7-3.4,12.7l0,0
	c1.7,5.9,7.8,8.4,7.8,8.4C-31.5,407.3-4.3,399.8-4.9,391.9z"/>
<linearGradient id="SVGID_8_" gradientUnits="userSpaceOnUse" x1="-241.0845" y1="353.1205" x2="-210.8232" y2="353.1205" gradientTransform="matrix(0.9487 -0.316 -0.316 -0.9487 309.3894 667.7236)">
	<stop  offset="0" style="stop-color:#EE2E7C;stop-opacity:0"/>
	<stop  offset="0.1889" style="stop-color:#EE3579;stop-opacity:0.3778"/>
	<stop  offset="0.5" style="stop-color:#EE3878"/>
	<stop  offset="0.606" style="stop-color:#EE3576;stop-opacity:0.7881"/>
	<stop  offset="0.7168" style="stop-color:#E13174;stop-opacity:0.5664"/>
	<stop  offset="0.8299" style="stop-color:#CD2C6F;stop-opacity:0.3402"/>
	<stop  offset="0.9438" style="stop-color:#AF2467;stop-opacity:0.1123"/>
	<stop  offset="1" style="stop-color:#9E2064;stop-opacity:0"/>
</linearGradient>
<path class="st7" d="M-4.9,391.9c-0.2-4.4-6.2-4.9-6.2-4.9c3.5,1.9-7.3,4.2-15.2,13.1c-5.6,6.3-3.4,12.7-3.4,12.7l0,0
	c1.7,5.9,7.8,8.4,7.8,8.4C-31.5,407.3-5,400.1-4.9,391.9z"/>
<linearGradient id="SVGID_9_" gradientUnits="userSpaceOnUse" x1="-249.8642" y1="377.9777" x2="-207.4628" y2="377.9777" gradientTransform="matrix(0.9487 -0.316 -0.316 -0.9487 309.3894 667.7236)">
	<stop  offset="0" style="stop-color:#D9E7BC"/>
	<stop  offset="1" style="stop-color:#62C8D5"/>
</linearGradient>
<path class="st8" d="M-28.7,379.4c18.2-13,16.8-19.5,16.8-19.5c-9.3,8.9-26.2,20.9-26.2,20.9c-4.7,3.9-8.1,7-7.2,12.5
	c1.5,9.3,11.3,6.9,11.3,6.9C-45.3,402.3-47.4,392.8-28.7,379.4z"/>
<path class="st9" d="M-11.9,359.9L-11.9,359.9c0,0,1.4,6.5-16.8,19.5c-14.4,10.3-16.5,18.3-11.7,20.5c1.6,0.6,3.2,0.6,4.5,0.6
	c0.6,0,1.2-0.1,1.8-0.3c-7,0.1-2.6-7.2,14.3-19.7C-3.9,368.8-11.9,359.9-11.9,359.9z"/>
<linearGradient id="SVGID_10_" gradientUnits="userSpaceOnUse" x1="-241.0797" y1="353.0889" x2="-212.3699" y2="353.0889" gradientTransform="matrix(0.9487 -0.316 -0.316 -0.9487 309.3894 667.7236)">
	<stop  offset="0" style="stop-color:#EE2E7C;stop-opacity:0"/>
	<stop  offset="0.1864" style="stop-color:#D92776;stop-opacity:0.1864"/>
	<stop  offset="0.524" style="stop-color:#B9256B;stop-opacity:0.524"/>
	<stop  offset="0.8073" style="stop-color:#A52065;stop-opacity:0.8073"/>
	<stop  offset="1" style="stop-color:#9E2064"/>
</linearGradient>
<path class="st10" d="M-9.1,392.9c3.2-2.4,1.6-4.4,1.4-4.6c-1.7-1.1-3.3-1.3-3.3-1.3c3.5,1.9-7.3,4.2-15.2,13.1
	c-5.6,6.3-3.4,12.7-3.4,12.7l0,0c1.7,5.9,7.8,8.4,7.8,8.4C-39.7,410.8-12.6,395.5-9.1,392.9z"/>
<linearGradient id="SVGID_11_" gradientUnits="userSpaceOnUse" x1="-239.962" y1="352.9465" x2="-210.8649" y2="352.9465" gradientTransform="matrix(0.9487 -0.316 -0.316 -0.9487 309.3894 667.7236)">
	<stop  offset="0" style="stop-color:#EE2E7C;stop-opacity:0"/>
	<stop  offset="4.750010e-002" style="stop-color:#EF5897;stop-opacity:9.500021e-002"/>
	<stop  offset="0.1021" style="stop-color:#F283B1;stop-opacity:0.2041"/>
	<stop  offset="0.1591" style="stop-color:#F6A9C9;stop-opacity:0.3182"/>
	<stop  offset="0.2179" style="stop-color:#F9CADD;stop-opacity:0.4358"/>
	<stop  offset="0.2791" style="stop-color:#FCE1EB;stop-opacity:0.5582"/>
	<stop  offset="0.3437" style="stop-color:#FEF2F7;stop-opacity:0.6873"/>
	<stop  offset="0.4138" style="stop-color:#FFFCFD;stop-opacity:0.8276"/>
	<stop  offset="0.5" style="stop-color:#FFFFFF"/>
	<stop  offset="0.5637" style="stop-color:#FDFBFD;stop-opacity:0.8726"/>
	<stop  offset="0.6304" style="stop-color:#F7EEF3;stop-opacity:0.7391"/>
	<stop  offset="0.6985" style="stop-color:#EFD9E4;stop-opacity:0.6029"/>
	<stop  offset="0.7676" style="stop-color:#E2BCD0;stop-opacity:0.4648"/>
	<stop  offset="0.8374" style="stop-color:#D296B6;stop-opacity:0.3252"/>
	<stop  offset="0.9078" style="stop-color:#BF6997;stop-opacity:0.1843"/>
	<stop  offset="0.9775" style="stop-color:#A73371;stop-opacity:4.495645e-002"/>
	<stop  offset="1" style="stop-color:#9E2064;stop-opacity:0"/>
</linearGradient>
<path class="st11" d="M-11,387.1c0,0,1.7,0.2,3.3,1.3c0.2,0.2,1.8,2.2-1.4,4.6c-3.5,2.6-31,17.4-12.7,28.4
	C-31.5,407.5-5,400.2-4.9,392C-5,387.6-11,387.1-11,387.1z"/>
<g>
	<path class="st12" d="M-192.1,418.4l-5-33.3l-0.3-2.2h-0.4v35.5h-7.2v-52.9h9.5l4.6,24.2l0.4,2.8h0.1l0.4-2.8l4.6-24.2h9.5v52.9
		h-7.2v-35.5h-0.4l-0.3,2.2l-5,33.3H-192.1z"/>
	<path class="st12" d="M-161,382.4l0.2,0.5h0.1l0.2-0.5l3.9-16.9h7.7l-8,30.4v22.5h-7.8v-22.5l-7.8-30.4h7.6L-161,382.4z"/>
	<path class="st12" d="M-133.1,384.5v-8.1c0-1.4-0.3-2.4-1-3.3c-0.4-0.4-0.9-0.6-1.6-0.6c-1.4,0-2,1-2.3,1.9
		c-0.2,0.6-0.3,1.2-0.3,1.9v31.8c0,1.5,0.4,2.5,1.1,3.3c0.4,0.4,0.9,0.6,1.5,0.6c1.4,0,2-0.9,2.3-1.9c0.2-0.5,0.3-1.2,0.3-1.9v-9.6
		h-3.1V392h10.9v26.4h-4.6l-1-2.5c-1.4,1.8-3.5,3.1-6,3.1s-4.2-0.6-5.5-1.8c-1.3-1.1-2.2-2.4-2.7-3.9c-0.6-1.7-0.9-3.6-0.9-5.8
		v-31.2c0.1-2.1,0.5-4,1.3-5.7c0.6-1.4,1.6-2.9,3-4c1.4-1.1,3.5-1.8,6-1.8s4.5,0.7,6,1.8s2.4,2.5,3.1,4c0.8,1.7,1.2,3.6,1.3,5.7v8.2
		C-125.3,384.5-133.1,384.5-133.1,384.5z"/>
	<path class="st12" d="M-119.6,365.5h17.8v8h-10.1v13.9h7.2v8.5h-7.2v14.5h10v8h-17.7V365.5z"/>
	<path class="st12" d="M-97.5,365.5h7.8v45.7h10.3v7.2h-18.1C-97.5,418.4-97.5,365.5-97.5,365.5z"/>
</g>
<g class="st13">
	<path id="XMLID_28_" class="st12" d="M-76.5,419v-53h6.8c4.6,0,8.2,0.9,10.6,3.1c2.4,2.2,3.6,5.7,3.6,10.9c0,2.5-0.2,4.4-1,6.1
		c-0.8,1.7-2,3.2-3.8,4.8c1.9,1.1,3.4,3.1,4.5,6.5c0.6,1.7,0.9,3.8,0.9,6.5c0,4-0.7,7.5-2.5,10.2c-1.8,2.7-4.9,4.5-9.5,4.8h-9.6V419
		z M-68.7,387.9c0.6,0,2.2,0.1,3.5-0.8s2.3-2.6,2.3-6.3c0-3.7-1-5.4-2.3-6.3s-2.8-0.8-3.5-0.8V387.9z M-68.7,411.3
		c0.6,0,2.2,0.1,3.5-0.8s2.3-3,2.3-7.3c0-4.3-1-6.4-2.3-7.3s-2.8-0.8-3.5-0.8V411.3z"/>
</g>
<g id="XMLID_27_">
</g>
<g id="XMLID_32_">
</g>
<g id="XMLID_33_">
</g>
<g id="XMLID_34_">
</g>
<g id="XMLID_35_">
</g>
</svg>
