<?xml version="1.0" standalone="no"?>
<!DOCTYPE svg PUBLIC "-//W3C//DTD SVG 20010904//EN"
 "http://www.w3.org/TR/2001/REC-SVG-20010904/DTD/svg10.dtd">
<svg version="1.0" xmlns="http://www.w3.org/2000/svg"
 width="261.000000pt" height="261.000000pt" viewBox="0 0 261.000000 261.000000"
 preserveAspectRatio="xMidYMid meet">
<metadata>
Created by potrace 1.11, written by Peter Selinger 2001-2013
</metadata>
<g transform="translate(0.000000,261.000000) scale(0.100000,-0.100000)"
fill="#000000" stroke="none">
<path d="M1804 2572 c-119 -105 -324 -279 -404 -342 -52 -41 -97 -77 -100 -80
-3 -3 -23 -19 -45 -35 -22 -17 -42 -33 -45 -36 -3 -3 -113 -86 -245 -184 -396
-294 -486 -404 -486 -589 0 -106 47 -220 116 -278 78 -68 212 -92 355 -63 47
9 96 19 110 21 14 3 78 18 142 35 64 16 120 29 124 29 4 0 -4 -10 -17 -23 -82
-75 -176 -228 -194 -313 -27 -129 -12 -257 43 -358 43 -81 154 -183 261 -240
107 -58 238 -116 259 -116 9 0 -13 26 -48 57 -163 148 -219 344 -154 538 29
87 72 130 325 326 263 206 325 281 317 385 -6 73 -42 117 -127 158 -60 28 -75
31 -161 30 -52 0 -108 -3 -125 -7 -16 -4 -52 -11 -80 -16 -27 -6 -97 -21 -155
-34 -58 -14 -121 -28 -140 -31 -19 -3 -46 -8 -60 -11 -31 -6 -141 -23 -194
-29 l-38 -4 43 39 c102 92 282 240 394 324 144 107 306 267 357 351 81 134
106 275 70 399 -14 48 -52 125 -62 125 -3 0 -19 -12 -36 -28z"/>
</g>
</svg>
