<?xml version="1.0" encoding="UTF-8"?>
<svg width="30px" height="40px" viewBox="0 0 30 40" version="1.1" xmlns="http://www.w3.org/2000/svg" xmlns:xlink="http://www.w3.org/1999/xlink">
    <!-- Generator: Sketch 47.1 (45422) - http://www.bohemiancoding.com/sketch -->
    <title>Fill 1</title>
    <desc>Created with Sketch.</desc>
    <defs></defs>
    <g id="Project-(Gigabit)" stroke="none" stroke-width="1" fill="none" fill-rule="evenodd">
        <g id="Plans-(Most-popular)---Gigabit" transform="translate(-650.000000, -2007.000000)" fill="#000000">
            <g id="FAQs" transform="translate(0.000000, 1741.000000)">
                <g id="Worry-Free-Guarantee" transform="translate(650.000000, 266.000000)">
                    <path d="M27.7777778,37.7777778 L2.22222222,37.7777778 L2.22222222,12.2222222 L6.14982716,12.2222222 L6.14982716,15.1594074 L8.51683951,15.1594074 L8.51683951,12.2222222 L21.4831605,12.2222222 L21.4831605,15.1594074 L23.8501728,15.1594074 L23.8501728,12.2222222 L27.7777778,12.2222222 L27.7777778,37.7777778 Z M8.88888889,6.45176833 C8.88888889,4.12000899 10.6957825,2.22222222 12.9158638,2.22222222 L17.0841362,2.22222222 C19.3042175,2.22222222 21.1111111,4.12000899 21.1111111,6.45176833 L21.1111111,10 L8.88888889,10 L8.88888889,6.45176833 Z M23.6577778,10 L30,10 L30,40 L0,40 L0,10 L6.34222222,10 L6.34222222,6.49333333 C6.34222222,2.91333333 9.25555556,0 12.8377778,0 L17.1622222,0 C20.7444444,0 23.6577778,2.91333333 23.6577778,6.49333333 L23.6577778,10 Z M17.1676808,22.2843269 L10.278463,22.2843269 L13.1047525,19.4961022 L11.3616182,17.7777778 L5.55555556,23.5012032 L11.3616182,29.2246286 L13.1047525,27.5041427 L10.278463,24.7159181 L17.1676808,24.7159181 C19.2090117,24.7159181 20.8666338,26.3521088 20.8666338,28.3643857 C20.8666338,30.3766625 19.2090117,32.0128532 17.1676808,32.0128532 L13.878748,32.0128532 L13.878748,34.4444444 L17.1676808,34.4444444 C20.5684372,34.4444444 23.3333333,31.7167394 23.3333333,28.3665471 C23.3333333,25.0163547 20.5662446,22.2843269 17.1676808,22.2843269 Z" id="Fill-1"></path>
                </g>
            </g>
        </g>
    </g>
</svg>