<?xml version="1.0" encoding="UTF-8"?>
<svg width="28px" height="31px" viewBox="0 0 28 31" version="1.1" xmlns="http://www.w3.org/2000/svg" xmlns:xlink="http://www.w3.org/1999/xlink">
    <!-- Generator: Sketch 51.2 (57519) - http://www.bohemiancoding.com/sketch -->
    <title>box-open</title>
    <desc>Created with Sketch.</desc>
    <defs></defs>
    <g id="FIVZ-Style" stroke="none" stroke-width="1" fill="none" fill-rule="evenodd">
        <g id="Home---Plans-(internet)" transform="translate(-160.000000, -1881.000000)" fill="#000000" fill-rule="nonzero">
            <g id="FAQs" transform="translate(40.000000, 1448.000000)">
                <g id="Fios-TV" transform="translate(120.000000, 433.000000)">
                    <g id="box-open">
                        <path d="M23.9061667,11.9195 L27.4470556,8.22705556 L17.3221111,0.0706111111 L13.8466667,3.69588889 L10.3040556,0 L0.1085,8.22705556 L3.64938889,11.9195 L0.1085,15.6119444 L3.96627778,18.724 L3.96627778,23.126 L13.8070556,31 L23.6478333,23.1277222 L23.6478333,18.6740556 L27.4470556,15.6136667 L23.9061667,11.9195 Z M13.7777778,17.6458889 L6.62022222,11.9195 L13.7777778,6.19483333 L20.9353333,11.9212222 L13.7777778,17.6458889 Z M22.444,13.1939444 L24.5864444,15.4293889 L17.4908889,21.1454444 L15.3260556,18.8876111 L22.444,13.1939444 Z M17.4908889,2.69527778 L24.5864444,8.41133333 L22.444,10.6467778 L15.3260556,4.95138889 L17.4908889,2.69527778 Z M10.1352778,2.62466667 L12.307,4.88938889 L5.11155556,10.6467778 L2.96738889,8.40961111 L10.1352778,2.62466667 Z M5.11155556,13.1939444 L12.307,18.9513333 L10.1352778,21.2160556 L2.96738889,15.4293889 L5.11155556,13.1939444 Z M5.90205556,20.2877778 L10.3023333,23.839 L12.8787778,21.1523333 L12.8787778,27.776 L5.90205556,22.1942778 L5.90205556,20.2877778 Z M21.7103333,22.196 L14.818,27.7105556 L14.818,21.1557778 L17.3238333,23.7683889 L21.7120556,20.2343889 L21.7120556,22.196 L21.7103333,22.196 Z" id="Shape"></path>
                    </g>
                </g>
            </g>
        </g>
    </g>
</svg>