<?xml version="1.0" encoding="UTF-8"?>
<svg width="14px" height="12px" viewBox="0 0 14 12" version="1.1" xmlns="http://www.w3.org/2000/svg" xmlns:xlink="http://www.w3.org/1999/xlink">
    <!-- Generator: Sketch 42 (36781) - http://www.bohemiancoding.com/sketch -->
    <title>icon chat</title>
    <desc>Created with Sketch.</desc>
    <defs></defs>
    <g id="Symbols" stroke="none" stroke-width="1" fill="none" fill-rule="evenodd">
        <g id="Header" transform="translate(-1026.000000, -14.000000)" fill="#333333">
            <g id="aux-navigation">
                <g transform="translate(438.000000, 0.000000)">
                    <g id="links-right" transform="translate(292.000000, 12.000000)">
                        <g id="Chat-Now" transform="translate(296.000000, 0.000000)">
                            <path d="M10.9501439,5.93 L2.82014391,5.93 C2.51914391,5.93 2.27514391,5.686 2.27514391,5.385 C2.27514391,5.084 2.51914391,4.84 2.82014391,4.84 L10.9501439,4.84 C11.2511439,4.84 11.4951439,5.084 11.4951439,5.385 C11.4951439,5.686 11.2511439,5.93 10.9501439,5.93 M7.48014391,8.241 L2.82014391,8.241 C2.51914391,8.241 2.27514391,7.997 2.27514391,7.696 C2.27514391,7.395 2.51914391,7.151 2.82014391,7.151 L7.48014391,7.151 C7.78114391,7.152 8.02514391,7.396 8.02414391,7.697 C8.02314391,7.997 7.78014391,8.24 7.48014391,8.241 M12.4901439,2 L1.39014391,2 C0.612143906,2.01 -0.00985609362,2.648 0.00014390638,3.426 L0.00014390638,3.428 L0.00014390638,9.856 C-0.0108560936,10.634 0.610143906,11.273 1.38814391,11.284 L1.39014391,11.284 L2.20014391,11.284 L2.20014391,13.369 L7.78014391,11.287 L12.4901439,11.287 C13.2681439,11.277 13.8901439,10.639 13.8801439,9.861 L13.8801439,9.859 L13.8801439,3.428 C13.8911439,2.65 13.2701439,2.011 12.4921439,2 L12.4901439,2" id="icon-chat"></path>
                        </g>
                    </g>
                </g>
            </g>
        </g>
    </g>
</svg>