<?xml version="1.0" encoding="UTF-8"?>
<svg width="18px" height="18px" viewBox="0 0 18 18" version="1.1" xmlns="http://www.w3.org/2000/svg" xmlns:xlink="http://www.w3.org/1999/xlink">
    <!-- Generator: Sketch 48.1 (47250) - http://www.bohemiancoding.com/sketch -->
    <title>Shape</title>
    <desc>Created with Sketch.</desc>
    <defs></defs>
    <g id="Header-Alternate" stroke="none" stroke-width="1" fill="none" fill-rule="evenodd" transform="translate(-1030.000000, -9.000000)">
        <g id="Header" fill="#000000" fill-rule="nonzero">
            <g id="aux-navigation" transform="translate(328.000000, 0.000000)">
                <g id="links-right" transform="translate(386.000000, 9.000000)">
                    <g id="chat-now" transform="translate(316.000000, 0.000000)">
                        <path d="M9.562,0 C4.902,0 1.124,3.778 1.124,8.438 C1.124,9.925 1.511,11.319 2.186,12.532 L0,18 L5.468,15.813 C6.681,16.488 8.076,16.875 9.562,16.875 C14.222,16.875 18,13.097 18,8.437 C18,3.777 14.222,0 9.562,0 Z M9.562,15.75 C8.324,15.75 7.097,15.432 6.015,14.83 L5.547,14.57 L5.05,14.768 L2.019,15.98 L3.231,12.949 L3.43,12.452 L3.17,11.984 C2.568,10.902 2.25,9.675 2.25,8.437 C2.25,4.405 5.53,1.125 9.562,1.125 C13.594,1.125 16.874,4.405 16.874,8.437 C16.874,12.469 13.595,15.75 9.562,15.75 Z M13.5,9.563 C14.1213203,9.563 14.625,9.05932034 14.625,8.438 C14.625,7.81667966 14.1213203,7.313 13.5,7.313 C12.8786797,7.313 12.375,7.81667966 12.375,8.438 C12.375,9.05932034 12.8786797,9.563 13.5,9.563 Z M5.625,9.563 C6.24632034,9.563 6.75,9.05932034 6.75,8.438 C6.75,7.81667966 6.24632034,7.313 5.625,7.313 C5.00367966,7.313 4.5,7.81667966 4.5,8.438 C4.5,9.05932034 5.00367966,9.563 5.625,9.563 Z M9.562,9.563 C10.1833203,9.563 10.687,9.05932034 10.687,8.438 C10.687,7.81667966 10.1833203,7.313 9.562,7.313 C8.94067966,7.313 8.437,7.81667966 8.437,8.438 C8.437,9.05932034 8.94067966,9.563 9.562,9.563 Z" id="Shape"></path>
                    </g>
                </g>
            </g>
        </g>
    </g>
</svg>