<?xml version="1.0" encoding="UTF-8"?>
<svg width="24px" height="18px" viewBox="0 0 24 18" version="1.1" xmlns="http://www.w3.org/2000/svg" xmlns:xlink="http://www.w3.org/1999/xlink">
    <!-- Generator: Sketch 42 (36781) - http://www.bohemiancoding.com/sketch -->
    <title>Checkmark</title>
    <desc>Created with Sketch.</desc>
    <defs></defs>
    <g id="Why-Fios---Deals---Movers" stroke="none" stroke-width="1" fill="none" fill-rule="evenodd">
        <g id="Why-Fios" transform="translate(-1000.000000, -1331.000000)" fill="#DA3237">
            <g id="Comparison-Grid" transform="translate(0.000000, 929.000000)">
                <g id="Compare-Grid" transform="translate(280.000000, 321.000000)">
                    <g id="Row-1" transform="translate(0.000000, 46.000000)">
                        <path d="M741.342004,35 C740.631259,35 739.963011,35.2771804 739.463082,35.7775287 L729.048929,46.0790507 L724.535536,41.5269281 C724.034141,41.0240676 723.366103,40.7470966 722.655148,40.7470966 C721.944193,40.7470966 721.276154,41.0240676 720.773922,41.5263001 C720.469945,41.830068 720.250754,42.1926635 720.12326,42.6027816 C720.048522,42.840604 720.00728,43.0878473 720.00079,43.3384401 C719.993672,43.6292283 720.034704,43.9198071 720.122632,44.2020119 C720.251383,44.6175732 720.470154,44.9828902 720.773085,45.2870768 L727.137557,51.6835794 L727.294779,51.8431047 C727.807898,52.2894405 728.425482,52.5214011 729.060652,52.5214011 C729.102313,52.5214011 729.144183,52.5203544 729.183751,52.5186796 C729.760512,52.492092 730.305661,52.2770888 730.760162,51.8971172 L743.222183,39.5403989 C744.259307,38.503694 744.259307,36.8165364 743.221974,35.7794128 C742.719323,35.2771804 742.052122,35 741.342004,35 Z" id="Checkmark"></path>
                    </g>
                </g>
            </g>
        </g>
    </g>
</svg>