<?xml version="1.0" encoding="UTF-8"?>
<svg width="27px" height="27px" viewBox="0 0 27 27" version="1.1" xmlns="http://www.w3.org/2000/svg" xmlns:xlink="http://www.w3.org/1999/xlink">
    <!-- Generator: Sketch 44.1 (41455) - http://www.bohemiancoding.com/sketch -->
    <title>Page 1</title>
    <desc>Created with Sketch.</desc>
    <defs></defs>
    <g id="Non-Gig" stroke="none" stroke-width="1" fill="none" fill-rule="evenodd">
        <g id="Homepage" transform="translate(-280.000000, -185.000000)" fill="#959595">
            <g id="Banner---ACOS" transform="translate(0.000000, 160.000000)">
                <g id="Page-1" transform="translate(280.000000, 24.000000)">
                    <path d="M18.1469,10.5321 C17.8689,10.1611 17.3379,10.0861 16.9679,10.3641 L13.7589,12.7711 L13.7589,7.2501 C13.7589,6.7871 13.3799,6.4071 12.9179,6.4071 L12.3149,6.4071 C11.8509,6.4071 11.4729,6.7871 11.4729,7.2501 L11.4729,15.1641 C11.4729,15.6261 11.8509,16.0061 12.3149,16.0061 L12.9179,16.0061 C13.0039,16.0061 13.0839,15.9811 13.1629,15.9561 C13.2879,15.9341 13.4099,15.8921 13.5179,15.8111 L18.3389,12.1931 C18.7099,11.9161 18.7859,11.3861 18.5069,11.0151 L18.1469,10.5321 Z" id="Fill-1"></path>
                    <g id="Group-5" transform="translate(0.000000, 0.717700)">
                        <path d="M20.9968,21.2775 C16.7868,25.4865 9.9378,25.4865 5.7298,21.2775 C1.5208,17.0685 1.5208,10.2195 5.7308,6.0125 C9.9378,1.8035 16.7858,1.8035 20.9968,6.0125 C25.2048,10.2195 25.2048,17.0695 20.9968,21.2775 M22.8168,4.1905 C17.6038,-1.0205 9.1228,-1.0205 3.9098,4.1905 C-1.3032,9.4055 -1.3032,17.8865 3.9098,23.0985 C8.9878,28.1755 17.1598,28.2935 22.3998,23.4755 L23.0968,22.7905 C28.0158,17.5575 27.9298,9.3025 22.8168,4.1905" id="Fill-3"></path>
                    </g>
                </g>
            </g>
        </g>
    </g>
</svg>