<?xml version="1.0" encoding="UTF-8"?>
<svg width="24px" height="24px" viewBox="0 0 24 24" version="1.1" xmlns="http://www.w3.org/2000/svg" xmlns:xlink="http://www.w3.org/1999/xlink">
    <!-- Generator: Sketch 48.2 (47327) - http://www.bohemiancoding.com/sketch -->
    <title>banking</title>
    <desc>Created with Sketch.</desc>
    <defs></defs>
    <g id="Banner---Savings" stroke="none" stroke-width="1" fill="none" fill-rule="evenodd" transform="translate(-173.000000, -18.000000)">
        <g fill="#000000" fill-rule="nonzero" id="banking">
            <g transform="translate(173.000000, 18.000000)">
                <path d="M12.78284,20.0033733 L11.3220933,20.0033733 L11.3220933,18.28308 C10.9902518,18.2561107 10.6620227,18.1953926 10.3424933,18.1018667 C9.38259745,17.8334946 8.54064364,17.2505241 7.95166667,16.4464533 C7.6627772,16.029715 7.44226076,15.5695346 7.29844,15.08328 C7.20098754,14.7529113 7.13911192,14.4130759 7.11386667,14.06956 L7.09608,13.8234533 L8.55393333,13.7177067 L8.57172,13.9638133 C8.58872816,14.2026304 8.63159677,14.4388974 8.69957333,14.6684667 C8.79602645,14.9995415 8.94483178,15.3130509 9.14034667,15.5971067 C9.54161276,16.1358358 10.1117073,16.5246968 10.75972,16.70168 C10.9435193,16.7557872 11.1316915,16.7937446 11.3220933,16.81512 L11.3220933,12.2189867 C10.4127212,12.1020516 9.54478306,11.7682293 8.79142667,11.2456533 C8.54458701,11.0558099 8.32735305,10.8303122 8.14685333,10.57656 C8.04553896,10.4375415 7.95780325,10.2891186 7.88485333,10.1333333 C7.5095674,9.17957942 7.56102177,8.11072162 8.02618667,7.19742667 C8.74017073,6.04964834 9.9719737,5.32534562 11.3220933,5.25942667 L11.3220933,3.99676 L12.78284,3.99676 L12.78284,5.2364 L12.84196,5.24217333 C13.9865221,5.29073754 15.0633047,5.79817624 15.8293333,6.64998667 C16.2258215,7.13528242 16.4934794,7.71275668 16.6075333,8.32896 L16.6542,8.57073333 L15.2208667,8.85048 L15.1737733,8.60870667 C15.1055235,8.2314249 14.9431792,7.87746372 14.7017733,7.5796 C14.2003514,7.0494543 13.5119148,6.73580239 12.78284,6.70533333 L12.78284,10.9774267 C14.077174,11.0363011 15.3000826,11.5875727 16.2013333,12.51844 L16.27248,12.6136133 C16.7992498,13.392751 16.99385,14.3496731 16.8132267,15.2726667 C16.5490887,16.2723752 15.8821242,17.1177417 14.97132,17.6072533 C14.4112303,17.9440371 13.788761,18.1639557 13.1414133,18.25376 C13.01644,18.2734667 12.89676,18.28788 12.78284,18.2979733 L12.78284,20.0033733 Z M12.78284,12.45884 L12.78284,16.8290533 C12.8241733,16.82372 12.86648,16.818 12.9097333,16.8108 C13.3671517,16.7492794 13.8077054,16.5971429 14.2056133,16.3632933 C14.7748211,16.0766235 15.2016609,15.5691865 15.3866133,14.9592933 C15.4804525,14.4283898 15.365029,13.8817746 15.06456,13.4341333 C14.4476115,12.8428101 13.6365944,12.4961507 12.78284,12.45884 Z M11.3220933,6.73217333 C10.5178832,6.78232681 9.78164974,7.20026801 9.32637333,7.86509333 C9.06378545,8.37517411 9.02089664,8.97036772 9.20764,9.51282667 C9.2423277,9.58691451 9.28418511,9.65742858 9.33261333,9.72336 C9.4317741,9.86298711 9.55116689,9.98707581 9.68686667,10.0915467 L9.68734667,10.0920267 C10.1785786,10.4229163 10.7367573,10.6413647 11.3220933,10.7318 L11.3220933,6.73217333 Z" id="Shape"></path>
                <path d="M12.00008,1.52581333 C17.784801,1.52582806 22.474234,6.21527901 22.4742267,12 C22.4742193,17.784721 17.7847743,22.47416 12.0000533,22.47416 C6.21533234,22.47416 1.52588736,17.784721 1.52588,12 C1.53233896,6.21793873 6.21801873,1.53226493 12.00008,1.52581333 Z M12.00008,0 C7.14651729,-7.01070169e-05 2.77082864,2.92359158 0.913402026,7.40767871 C-0.944024589,11.8917658 0.0826016904,17.0532082 3.51456401,20.4852201 C6.94652633,23.917232 12.1079539,24.9439328 16.5920678,23.086571 C21.0761818,21.2292091 23.9999067,16.8535627 23.9999067,12 C23.9998698,5.37266594 18.6274141,0.000132545843 12.00008,0 Z" id="Shape"></path>
            </g>
        </g>
    </g>
</svg>