<?xml version="1.0" encoding="UTF-8"?>
<svg width="24px" height="19px" viewBox="0 0 24 19" version="1.1" xmlns="http://www.w3.org/2000/svg" xmlns:xlink="http://www.w3.org/1999/xlink">
    <!-- Generator: Sketch 51.3 (57544) - http://www.bohemiancoding.com/sketch -->
    <title>top-box-blk</title>
    <desc>Created with Sketch.</desc>
    <defs></defs>
    <g id="Mobile" stroke="none" stroke-width="1" fill="none" fill-rule="evenodd">
        <g id="Why-Switch?" transform="translate(-16.000000, -1669.000000)" fill="#0A0B09">
            <g id="TV" transform="translate(0.000000, 1373.000000)">
                <g id="99.9%-Network-Reliability" transform="translate(16.000000, 295.000000)">
                    <g id="DVR-Storage">
                        <g id="top-box-blk">
                            <path d="M1.488,18.512 L22.512,18.512 L22.512,12.488 L1.488,12.488 L1.488,18.512 Z M19.3533333,11 L19.3533333,7.396 L17.864,7.396 L17.864,11 L0,11 L0,20 L24,20 L24,11 L19.3533333,11 Z" id="Fill-1"></path>
                            <path d="M18.6093333,16.4013333 C19.1053333,16.4 19.508,15.9973333 19.508,15.5 C19.508,15.0026667 19.104,14.6 18.608,14.6 C18.1106667,14.6013333 17.708,15.004 17.708,15.5013333 C17.708,15.9973333 18.112,16.4013333 18.6093333,16.4013333" id="Fill-2"></path>
                            <polygon id="Fill-3" points="3.70133333 16.244 11.4386667 16.244 11.4386667 14.756 3.70133333 14.756"></polygon>
                            <path d="M20.5826667,4.72933333 L21.26,4.05066667 C19.7973333,2.58666667 17.4213333,2.58533333 15.9586667,4.04933333 C15.9573333,4.04933333 15.9573333,4.05066667 15.9573333,4.05066667 L16.636,4.72933333 C17.7253333,3.64 19.492,3.64 20.5826667,4.72933333" id="Fill-4"></path>
                            <g id="Group-8" transform="translate(14.666667, 0.000000)">
                                <path d="M2.57066667,5.33066667 L3.248,6.00933333 C3.636,5.64 4.24666667,5.64 4.636,6.00933333 L5.31333333,5.33066667 C4.55733333,4.57333333 3.32933333,4.57333333 2.572,5.32933333 L2.57066667,5.33066667" id="Fill-5"></path>
                                <path d="M3.94266667,2.10133333 C5.16266667,2.09866667 6.33466667,2.584 7.19466667,3.44933333 L7.87466667,2.77066667 C5.70266667,0.598666667 2.18266667,0.598666667 0.0106666667,2.77066667 L0.689333333,3.44933333 C1.54933333,2.584 2.72133333,2.09866667 3.94266667,2.10133333" id="Fill-7"></path>
                            </g>
                        </g>
                    </g>
                </g>
            </g>
        </g>
    </g>
</svg>