<?xml version="1.0" encoding="UTF-8"?>
<svg width="14px" height="14px" viewBox="0 0 14 14" version="1.1" xmlns="http://www.w3.org/2000/svg" xmlns:xlink="http://www.w3.org/1999/xlink">
    <!-- Generator: Sketch 42 (36781) - http://www.bohemiancoding.com/sketch -->
    <title>icon external link</title>
    <desc>Created with Sketch.</desc>
    <defs></defs>
    <g id="Existing-Customers" stroke="none" stroke-width="1" fill="none" fill-rule="evenodd">
        <g transform="translate(-425.000000, -590.000000)" id="Hero" fill="#747676">
            <g transform="translate(0.000000, 160.000000)">
                <g id="View/pay-my-bill" transform="translate(280.000000, 312.000000)">
                    <g id="Group" transform="translate(0.000000, 116.000000)">
                        <path d="M150.664354,2.50525853 C150.772404,2.19860439 151.059323,2.00671812 151.366397,2.00503859 L151.363878,2.00125965 L157.492342,2.00363898 C158.319231,2.00363898 158.988523,2.67335146 158.988243,3.49996001 L158.987404,9.62520494 L158.983765,9.62282561 C158.981945,9.92989963 158.790059,10.2168193 158.483545,10.3247291 C158.206702,10.4222818 157.910545,10.3469828 157.7132,10.1557964 L155.978806,8.42098213 L152.89253,11.5073979 C152.352141,11.9694086 151.531971,11.9453353 151.021674,11.4346183 L149.556984,9.9703483 C149.046127,9.45949134 149.022894,8.63932099 149.483645,8.09739273 L152.57048,5.0125165 L150.833287,3.27532291 C150.64224,3.07797817 150.566801,2.78210101 150.664354,2.50525853 Z M158.992022,12.4771864 L159,12.6139281 L159,14.4416763 C159,15.2709441 158.325249,15.9454153 157.496261,15.9454153 L146.504019,15.9454153 C145.675031,15.9454153 145.00028,15.2709441 145.00028,14.4416763 L145,3.50513856 C145,3.1049906 145.156616,2.72779622 145.441576,2.44311593 C145.726397,2.15829568 146.103591,2.00139961 146.503599,2.00139961 L146.503739,2.00139961 L148.493842,2 C148.888111,2.05934338 149.194486,2.41120486 149.194486,2.82170992 C149.194486,3.23235494 148.884472,3.58757548 148.490343,3.64691886 L147.133143,3.64188027 C146.864418,3.66259447 146.647619,3.8882113 146.639361,4.16659335 L146.640761,13.8006558 C146.661055,14.0783381 146.89423,14.2991962 147.175971,14.3059143 L156.872876,14.3050746 C157.131803,14.2828208 157.345803,14.0623825 157.359519,13.7925381 L157.359239,12.6086096 C157.369597,12.1631143 157.735594,11.8015956 158.17899,11.8015956 C158.579838,11.8018755 158.923162,12.0943936 158.992022,12.4771864 Z" id="icon-external-link"></path>
                    </g>
                </g>
            </g>
        </g>
    </g>
</svg>