<?xml version="1.0" encoding="UTF-8"?>
<svg width="24px" height="24px" viewBox="0 0 24 24" version="1.1" xmlns="http://www.w3.org/2000/svg" xmlns:xlink="http://www.w3.org/1999/xlink">
    <!-- Generator: Sketch 42 (36781) - http://www.bohemiancoding.com/sketch -->
    <title>facebook</title>
    <desc>Created with Sketch.</desc>
    <defs></defs>
    <g id="Symbols" stroke="none" stroke-width="1" fill="none" fill-rule="evenodd">
        <g id="Footer" transform="translate(-1121.000000, -228.000000)" fill="#3B5A96">
            <g id="Links">
                <g transform="translate(280.000000, 226.000000)">
                    <g id="social" transform="translate(841.000000, 2.000000)">
                        <path d="M24,2.5 L24,21.5 C24,22.875 22.875,24 21.5,24 L16,24 L16,14 L19,14 L19,11 L16,11 L16.005,9.327 C16.005,8.427 16.3065,8 17.6005,8 L19,8 L19,4 L15,4 C12,4 12,7 12,8 L12,11 L10,11 L10,14 L12,14 L12,24 L2.5,24 C1.125,24 0,22.875 0,21.5 L0,2.5 C0,1.125 1.125,0 2.5,0 L21.5,0 C22.875,0 24,1.125 24,2.5" id="facebook"></path>
                    </g>
                </g>
            </g>
        </g>
    </g>
</svg>