<?xml version="1.0" encoding="UTF-8"?>
<svg width="32px" height="29px" viewBox="0 0 32 29" version="1.1" xmlns="http://www.w3.org/2000/svg" xmlns:xlink="http://www.w3.org/1999/xlink">
    <!-- Generator: Sketch 50.2 (55047) - http://www.bohemiancoding.com/sketch -->
    <title>gear</title>
    <desc>Created with Sketch.</desc>
    <defs></defs>
    <g id="Page-1" stroke="none" stroke-width="1" fill="none" fill-rule="evenodd">
        <g id="gear" fill="#333333" fill-rule="nonzero">
            <path d="M22.0015714,10.0604 C22.3516071,10.1096 22.638,10.4444 22.638,10.8032 L22.638,12.6368 C22.638,12.9944 22.3516071,13.3304 22.0015714,13.3796 L19.5760714,13.7144 C19.3651071,14.6228 19.0138929,15.4772 18.546,16.25 L20.0262857,18.2336 C20.2396071,18.5192 20.2113214,18.9632 19.9614643,19.2188 L18.6886071,20.5136 C18.43875,20.768 18.0026786,20.7968 17.7221786,20.5784 L17.0904643,20.0912 L17.0904643,20.0984 L15.7704643,19.076 C15.0126429,19.55 14.1746786,19.9076 13.2836786,20.1224 L12.9525,22.5908 C12.9053571,22.9472 12.5765357,23.2412 12.2241429,23.2412 L12.2147143,23.2412 L10.4244643,23.2412 L10.4150357,23.2412 C10.0626429,23.2412 9.73382143,22.946 9.68667857,22.5908 L9.3555,20.1224 C8.46567857,19.9064 7.62653571,19.55 6.86989286,19.0748 L4.92642857,20.5784 C4.78382143,20.69 4.60467857,20.738 4.42789286,20.7236 C4.25110714,20.714 4.07667857,20.642 3.95057143,20.5136 L2.67889286,19.2176 C2.42903571,18.9632 2.39957143,18.5192 2.61289286,18.2336 L4.09317857,16.25 C3.62528571,15.4772 3.27407143,14.6228 3.06192857,13.7144 L0.637607143,13.3796 C0.287571429,13.328 0,12.9944 0,12.6356 L0,10.802 C0,10.4444 0.287571429,10.1096 0.637607143,10.0604 L3.06192857,9.7244 C3.27407143,8.8136 3.62528571,7.9604 4.09317857,7.1876 L2.61289286,5.2052 C2.39957143,4.9172 2.42903571,4.4756 2.67771429,4.2212 L3.95057143,2.9264 C4.20042857,2.6708 4.6365,2.6408 4.91582143,2.858 L5.54753571,3.3476 L5.54753571,3.3416 L6.86871429,4.3628 C7.62653571,3.8864 8.46332143,3.53 9.3555,3.3176 L9.68667857,0.848 C9.73382143,0.4904 10.0626429,0.2 10.4150357,0.2 L10.4244643,0.2 L12.2147143,0.2 L12.2241429,0.2 C12.5765357,0.2 12.9053571,0.4916 12.9525,0.848 L13.2836786,3.3176 C14.1746786,3.5312 15.0114643,3.8864 15.7681071,4.3628 L17.71275,2.858 C17.8541786,2.75 18.0345,2.7032 18.2112857,2.7164 C18.38925,2.7272 18.5613214,2.798 18.6886071,2.9264 L19.9602857,4.2212 C20.2113214,4.4756 20.2396071,4.9184 20.0262857,5.2052 L18.5448214,7.1876 C19.0138929,7.9604 19.3651071,8.8136 19.5760714,9.7244 L22.0015714,10.0604 Z M10.8699643,16.2068 C11.0161071,16.2212 11.1657857,16.2296 11.3154643,16.2296 C13.7598214,16.2296 15.7445357,14.21 15.7445357,11.72 C15.7445357,9.3848 14.0014286,7.4648 11.7680357,7.2308 C11.6218929,7.2188 11.4745714,7.2116 11.3237143,7.2116 C8.87817857,7.2116 6.89464286,9.2276 6.89464286,11.72 C6.89464286,14.0528 8.63775,15.974 10.8699643,16.2068 Z" id="Fill-1"></path>
            <path d="M30.5085,21.6986 L31.6422857,21.8558 C31.8061071,21.8786 31.9392857,22.0346 31.9392857,22.2026 L31.9392857,23.0582 C31.9392857,23.2274 31.8061071,23.3846 31.6422857,23.405 L30.5085,23.5646 C30.4106786,23.9894 30.2456786,24.3878 30.0276429,24.7502 L30.7194643,25.6742 C30.8196429,25.8098 30.8055,26.0162 30.6888214,26.1338 L30.0936429,26.741 C29.9781429,26.861 29.77425,26.8742 29.64225,26.7722 L29.3476071,26.5466 L28.7312143,26.069 C28.3764643,26.291 27.984,26.4578 27.5679643,26.5586 L27.4135714,27.7118 C27.3923571,27.8798 27.2367857,28.0142 27.0694286,28.0142 L26.2279286,28.0142 C26.0629286,28.0142 25.9108929,27.8762 25.8873214,27.7118 L25.7329286,26.5562 C25.3168929,26.4566 24.9256071,26.291 24.5720357,26.069 L23.6633571,26.7722 C23.5961786,26.8226 23.5125,26.8454 23.43,26.8394 C23.3475,26.8334 23.2661786,26.8022 23.2084286,26.741 L22.6120714,26.1338 C22.4953929,26.0162 22.4824286,25.8086 22.5837857,25.6742 L23.27325,24.7502 C23.0552143,24.3878 22.8913929,23.9894 22.7923929,23.5634 L21.6586071,23.405 C21.4959643,23.3846 21.3616071,23.2274 21.3616071,23.0582 L21.3616071,22.2026 C21.3616071,22.0346 21.4959643,21.8786 21.6586071,21.8558 L22.7923929,21.6986 C22.8913929,21.2738 23.0552143,20.8754 23.27325,20.5142 L22.5837857,19.5878 C22.4824286,19.4534 22.4953929,19.2446 22.6120714,19.127 L23.2084286,18.5222 C23.3251071,18.4034 23.5278214,18.389 23.6586429,18.491 L23.9532857,18.7154 L24.5708571,19.193 C24.9256071,18.9722 25.3168929,18.8042 25.7329286,18.7034 L25.8873214,17.5514 C25.9108929,17.3846 26.0629286,17.2478 26.2314643,17.2478 L27.0729643,17.2478 C27.2367857,17.2478 27.3923571,17.3846 27.4135714,17.5526 L27.5679643,18.7034 C27.984,18.8054 28.3752857,18.9722 28.7300357,19.193 L29.6387143,18.491 C29.7047143,18.4406 29.7895714,18.4166 29.8708929,18.425 C29.9545714,18.4286 30.0358929,18.4622 30.0936429,18.5222 L30.6876429,19.127 C30.8055,19.2458 30.8196429,19.4534 30.7194643,19.5878 L30.0276429,20.5142 C30.2456786,20.8754 30.4106786,21.2738 30.5085,21.6986 Z M24.5838214,22.631 C24.5838214,23.723 25.3982143,24.6182 26.44125,24.7286 C26.5096071,24.7358 26.5779643,24.7406 26.6486786,24.7406 C27.7907143,24.7406 28.71825,23.7962 28.71825,22.631 C28.71825,21.539 27.9038571,20.6426 26.8608214,20.5358 C26.7924643,20.5274 26.7241071,20.5238 26.6533929,20.5238 C25.5101786,20.5238 24.5838214,21.4682 24.5838214,22.631 Z" id="Fill-4"></path>
        </g>
    </g>
</svg>