<?xml version="1.0" encoding="UTF-8"?>
<svg width="21px" height="24px" viewBox="0 0 21 24" version="1.1" xmlns="http://www.w3.org/2000/svg" xmlns:xlink="http://www.w3.org/1999/xlink">
    <!-- Generator: Sketch 49.3 (51167) - http://www.bohemiancoding.com/sketch -->
    <title>gift</title>
    <desc>Created with Sketch.</desc>
    <defs></defs>
    <g id="Page-1" stroke="none" stroke-width="1" fill="none" fill-rule="evenodd">
        <g id="Plans-(Internet)---Gigabit" transform="translate(-841.000000, -712.000000)" fill="#FFFFFF" fill-rule="nonzero">
            <g id="Plans" transform="translate(0.000000, 205.000000)">
                <g id="Bundle-upsell" transform="translate(810.000000, 284.000000)">
                    <g id="Offer" transform="translate(30.000000, 221.000000)">
                        <g id="gift" transform="translate(0.000000, 2.000000)">
                            <path d="M19.4861111,7.20138889 C21.2833333,6.03333333 21.8069444,3.61527778 20.6541667,1.8125 L20.6347222,1.78194444 C20.0638889,0.905555556 19.1861111,0.302777778 18.1652778,0.0861111111 C17.1402778,-0.130555556 16.0944444,0.0625 15.2180556,0.633333333 C14.1138889,1.35138889 12.2694444,4.28333333 11.1111111,6.25138889 C9.95277778,4.28333333 8.10833333,1.35138889 7.00555556,0.634722222 C6.12638889,0.0625 5.07638889,-0.130555556 4.05833333,0.0861111111 C3.03611111,0.302777778 2.15833333,0.905555556 1.5875,1.78333333 L1.56805556,1.8125 C0.415277778,3.61666667 0.938888889,6.03472222 2.73611111,7.20138889 C3.25555556,7.54027778 4.3,7.82916667 5.49444444,8.06805556 L1.73611111,8.06805556 L1.73611111,23.6930556 L20.4861111,23.6930556 L20.4861111,8.06805556 L16.7291667,8.06805556 C17.9222222,7.82916667 18.9666667,7.54027778 19.4861111,7.20138889 Z M16.0708333,1.94305556 C16.4541667,1.69166667 16.8958333,1.5625 17.3458333,1.5625 C17.5097222,1.5625 17.675,1.57916667 17.8402778,1.61527778 C18.4527778,1.74583333 18.9805556,2.10694444 19.3236111,2.63333333 L19.3388889,2.65694444 C20.0291667,3.73888889 19.7138889,5.19027778 18.6333333,5.89166667 C18.0222222,6.28888889 15.5097222,6.78194444 12.4027778,7.13472222 C13.9847222,4.43888889 15.4555556,2.34305556 16.0708333,1.94305556 Z M2.88333333,2.65555556 L2.89722222,2.63611111 C3.24027778,2.10833333 3.76805556,1.74583333 4.38194444,1.61666667 C4.99861111,1.48333333 5.62638889,1.60138889 6.15277778,1.94444444 C6.76666667,2.34305556 8.2375,4.43888889 9.81944444,7.13472222 C6.71111111,6.78333333 4.19861111,6.29027778 3.5875,5.89166667 C2.50694444,5.19027778 2.19166667,3.7375 2.88333333,2.65555556 Z M3.29861111,9.63055556 L10.3291667,9.63055556 L10.3291667,22.1305556 L3.29861111,22.1305556 L3.29861111,9.63055556 Z M18.9236111,22.1305556 L11.8916667,22.1305556 L11.8916667,9.63055556 L18.9222222,9.63055556 L18.9222222,22.1305556 L18.9236111,22.1305556 Z" id="Shape"></path>
                        </g>
                    </g>
                </g>
            </g>
        </g>
    </g>
</svg>