<?xml version="1.0" encoding="UTF-8"?>
<svg width="25px" height="24px" viewBox="0 0 25 24" version="1.1" xmlns="http://www.w3.org/2000/svg" xmlns:xlink="http://www.w3.org/1999/xlink">
    <!-- Generator: Sketch 50.2 (55047) - http://www.bohemiancoding.com/sketch -->
    <title>google-plus</title>
    <desc>Created with Sketch.</desc>
    <defs></defs>
    <g id="Page-1" stroke="none" stroke-width="1" fill="none" fill-rule="evenodd">
        <g id="google-plus" fill="currentColor" fill-rule="nonzero">
            <path d="M2,0 L23,0 C24.1045695,-2.02906125e-16 25,0.8954305 25,2 L25,22 C25,23.1045695 24.1045695,24 23,24 L2,24 C0.8954305,24 1.3527075e-16,23.1045695 0,22 L0,2 C-1.3527075e-16,0.8954305 0.8954305,2.02906125e-16 2,0 Z M9.36157761,10.8639456 L9.36157761,12.7047095 L12.4022841,12.7047095 C12.279808,13.4948438 11.4831894,15.0211264 9.36157761,15.0211264 C7.53097754,15.0211264 6.03744865,13.5024438 6.03744865,11.6310179 C6.03744865,9.75933004 7.53097754,8.24064741 9.36157761,8.24064741 C10.4031485,8.24064741 11.1003205,8.68563846 11.4986298,9.06904358 L12.9539503,7.6654087 C12.0194153,6.79115067 10.8093088,6.26177381 9.36157761,6.26177381 C6.39728784,6.26177381 4.00010462,8.6625765 4.00010462,11.6310179 C4.00010462,14.5991973 6.39728784,17 9.36157761,17 C12.4559329,17 14.5087173,14.8216928 14.5087173,11.7536656 C14.5087173,11.4009225 14.4702472,11.132303 14.4244495,10.8639456 L9.36157761,10.8639456 Z M20.8506016,10.8639456 L19.3186026,10.8639456 L19.3186026,9.329801 L17.7868654,9.329801 L17.7868654,10.8639456 L16.2548664,10.8639456 L16.2548664,12.3978282 L17.7868654,12.3978282 L17.7868654,13.9319728 L19.3186026,13.9319728 L19.3186026,12.3978282 L20.8506016,12.3978282 L20.8506016,10.8639456 Z" id="Combined-Shape"></path>
        </g>
    </g>
</svg>