<?xml version="1.0" encoding="UTF-8"?>
<svg width="15px" height="15px" viewBox="0 0 15 15" version="1.1" xmlns="http://www.w3.org/2000/svg" xmlns:xlink="http://www.w3.org/1999/xlink">
    <!-- Generator: Sketch 42 (36781) - http://www.bohemiancoding.com/sketch -->
    <title>Info</title>
    <desc>Created with Sketch.</desc>
    <defs></defs>
    <g id="Modals-(ACOS)" stroke="none" stroke-width="1" fill="none" fill-rule="evenodd">
        <g id="Step-2" transform="translate(-551.000000, -501.000000)" fill="#747676">
            <g id="modal" transform="translate(364.000000, 205.000000)">
                <g id="Street" transform="translate(81.000000, 295.000000)">
                    <path d="M115.612,12.48265 L111.3874,12.48265 C111.05845,12.48265 110.79175,12.21595 110.79175,11.8873 C110.79175,11.55865 111.05845,11.29195 111.3874,11.29195 L111.3874,11.2903 L112.726,11.2903 L112.726,7.7401 L111.7987,7.7401 L111.7987,7.7383 C111.47005,7.7383 111.20335,7.4719 111.20335,7.14295 C111.20335,6.8143 111.47005,6.5476 111.7987,6.5476 L113.68135,6.5476 C114.00925,6.5476 114.2752,6.8131 114.2764,7.1407 L114.27865,7.14295 L114.27865,11.2903 L115.612,11.2903 L115.612,11.29195 C115.94065,11.29195 116.20735,11.55865 116.20735,11.8873 C116.20735,12.21595 115.94065,12.48265 115.612,12.48265 L115.612,12.48265 Z M113.30455,3.88015 C113.86975,3.88015 114.3277,4.3381 114.3277,4.903 C114.3277,5.46775 113.86975,5.9263 113.30455,5.9263 C112.7398,5.9263 112.28185,5.46775 112.28185,4.903 C112.28185,4.3381 112.7398,3.88015 113.30455,3.88015 L113.30455,3.88015 Z M113.5,1 C109.35745,1 106,4.35775 106,8.5 C106,12.64195 109.35745,16 113.5,16 C117.64165,16 121,12.64195 121,8.5 C121,4.35775 117.64165,1 113.5,1 L113.5,1 Z" id="Info"></path>
                </g>
            </g>
        </g>
    </g>
</svg>