<?xml version="1.0" encoding="UTF-8"?>
<svg width="18px" height="18px" viewBox="0 0 18 18" version="1.1" xmlns="http://www.w3.org/2000/svg" xmlns:xlink="http://www.w3.org/1999/xlink">
    <!-- Generator: Sketch 51.3 (57544) - http://www.bohemiancoding.com/sketch -->
    <title>ICON / info</title>
    <desc>Created with Sketch.</desc>
    <defs></defs>
    <g id="Test" stroke="none" stroke-width="1" fill="none" fill-rule="evenodd">
        <g id="Home---SubNav" transform="translate(-148.000000, -69.000000)" fill="#000000" fill-rule="nonzero">
            <g id="Sub-Nav" transform="translate(0.000000, 56.000000)">
                <g id="ICON-/-info-question" transform="translate(148.000000, 13.000000)">
                    <path d="M9,1.125 C13.342,1.125 16.875,4.658 16.875,9 C16.875,13.342 13.342,16.875 9,16.875 C4.658,16.875 1.125,13.342 1.125,9 C1.125,4.658 4.658,1.125 9,1.125 Z M9,0 C4.029,0 0,4.029 0,9 C0,13.971 4.029,18 9,18 C13.971,18 18,13.971 18,9 C18,4.029 13.971,0 9,0 Z" id="Shape"></path>
                    <path d="M6.234,7.533 C6.234,6.735 6.457,5.959 7.013,5.395 C7.569,4.83 8.334,4.585 9.133,4.585 C9.816,4.585 10.487,4.777 10.999,5.22 C11.467,5.622 11.766,6.244 11.766,7.026 C11.766,7.699 11.586,8.239 11.09,8.686 C10.688,9.051 10.562,9.142 10.281,9.404 C9.965,9.701 9.806,10.004 9.719,10.335 C9.667,10.536 9.641,10.781 9.641,11.071 L8.336,11.071 C8.336,10.565 8.365,9.986 8.565,9.525 C8.792,9.004 9.159,8.707 9.646,8.305 C10.111,7.921 10.256,7.537 10.256,7.073 C10.256,6.24 9.65,5.732 9.073,5.732 C8.027,5.732 7.611,6.499 7.611,7.532 L6.234,7.532 L6.234,7.533 Z M8.155,11.905 L9.773,11.905 L9.773,13.415 L8.155,13.415 L8.155,11.905 Z" id="Shape"></path>
                </g>
            </g>
        </g>
    </g>
</svg>