<?xml version="1.0" encoding="UTF-8"?>
<svg width="14px" height="18px" viewBox="0 0 14 18" version="1.1" xmlns="http://www.w3.org/2000/svg" xmlns:xlink="http://www.w3.org/1999/xlink">
    <!-- Generator: Sketch 48.1 (47250) - http://www.bohemiancoding.com/sketch -->
    <title>Shape</title>
    <desc>Created with Sketch.</desc>
    <defs></defs>
    <g id="Header-Alternate" stroke="none" stroke-width="1" fill="none" fill-rule="evenodd" transform="translate(-714.000000, -9.000000)">
        <g id="Header" fill="#000000" fill-rule="nonzero">
            <g id="aux-navigation" transform="translate(328.000000, 0.000000)">
                <g id="links-right" transform="translate(386.000000, 9.000000)">
                    <g id="enter-your-location">
                        <path d="M6.71,0 C3.004,0 0,3.005 0,6.711 C0,7.655 0.195,8.553 0.546,9.367 C1.567,11.564 6.763,18 6.763,18 C6.763,18 11.472,12.227 12.77,9.512 C13.213,8.587 13.421,7.347 13.421,6.71 C13.421,3.005 10.417,0 6.71,0 Z M11.755,9.027 C10.86,10.899 8.168,14.415 6.764,16.196 C5.031,13.997 2.228,10.317 1.579,8.921 C1.278,8.222 1.125,7.479 1.125,6.711 C1.125,3.631 3.631,1.125 6.711,1.125 C9.791,1.125 12.297,3.631 12.297,6.711 C12.296,7.189 12.124,8.256 11.755,9.027 Z M6.71,3.375 C4.846,3.375 3.335,4.886 3.335,6.75 C3.335,8.614 4.846,10.125 6.71,10.125 C8.574,10.125 10.085,8.614 10.085,6.75 C10.085,4.886 8.574,3.375 6.71,3.375 Z M6.71,9 C5.469,9 4.46,7.991 4.46,6.75 C4.46,5.509 5.47,4.5 6.71,4.5 C7.95,4.5 8.96,5.509 8.96,6.75 C8.96,7.991 7.951,9 6.71,9 Z" id="Shape"></path>
                    </g>
                </g>
            </g>
        </g>
    </g>
</svg>
