<?xml version="1.0" encoding="UTF-8"?>
<svg width="29px" height="23px" viewBox="0 0 29 23" version="1.1" xmlns="http://www.w3.org/2000/svg" xmlns:xlink="http://www.w3.org/1999/xlink">
    <!-- Generator: Sketch 51.2 (57519) - http://www.bohemiancoding.com/sketch -->
    <title>modem-router</title>
    <desc>Created with Sketch.</desc>
    <defs></defs>
    <g id="FIVZ-Style" stroke="none" stroke-width="1" fill="none" fill-rule="evenodd">
        <g id="Home---Plans-(internet)" transform="translate(-661.000000, -1880.000000)" fill="#000000" fill-rule="nonzero">
            <g id="FAQs" transform="translate(40.000000, 1448.000000)">
                <g id="Upgrade" transform="translate(621.000000, 431.000000)">
                    <g id="modem-router">
                        <path d="M10.334375,9.703125 L11.5765625,10.9453125 C12.9046875,9.6171875 15.21875,9.6171875 16.5484375,10.9453125 L17.790625,9.703125 C15.8,7.7109375 12.325,7.7109375 10.334375,9.703125 Z" id="Shape"></path>
                        <path d="M20.2765625,7.2171875 C18.6171875,5.55625 16.4109375,4.6421875 14.0625,4.6421875 C11.715625,4.6421875 9.5078125,5.55625 7.846875,7.215625 L9.0890625,8.4578125 C11.7453125,5.8015625 16.378125,5.8015625 19.0328125,8.4578125 L20.2765625,7.2171875 Z" id="Shape"></path>
                        <path d="M14.0625,2.971875 C16.846875,2.971875 19.4640625,4.05625 21.434375,6.025 L22.6765625,4.7828125 C20.3765625,2.48125 17.3171875,1.2140625 14.0625,1.2140625 C10.809375,1.2140625 7.75,2.48125 5.4484375,4.7828125 L6.690625,6.025 C8.6609375,4.05625 11.278125,2.971875 14.0625,2.971875 Z" id="Shape"></path>
                        <path d="M0,13.2390625 L0,23.7859375 L28.125,23.7859375 L28.125,13.2390625 L0,13.2390625 Z M26.3671875,22.028125 L1.7578125,22.028125 L1.7578125,14.996875 L26.3671875,14.996875 L26.3671875,22.028125 Z" id="Shape"></path>
                        <circle id="Oval" cx="5.2734375" cy="18.5125" r="1.0546875"></circle>
                        <circle id="Oval" cx="10.546875" cy="18.5125" r="1.0546875"></circle>
                    </g>
                </g>
            </g>
        </g>
    </g>
</svg>