<?xml version="1.0" encoding="utf-8"?>
<!-- Generator: Adobe Illustrator 23.0.1, SVG Export Plug-In . SVG Version: 6.00 Build 0)  -->
<svg version="1.1" id="Layer_1" xmlns="http://www.w3.org/2000/svg" xmlns:xlink="http://www.w3.org/1999/xlink" x="0px" y="0px"
	 viewBox="0 0 29.8 29" style="enable-background:new 0 0 29.8 29;" xml:space="preserve">
<style type="text/css">
	.st0{fill:none;}
</style>
<desc>Created with Sketch.</desc>
<path id="Non-Gig" d="M0,0l0,12.1L17.4,29l12.4-12.1L12.4,0L0,0z M1.8,11.3V1.8h9.8l15.6,15.1l-9.8,9.5L1.9,11.3H1.8z M9.3,7.2
	c0,1-0.8,1.8-1.9,1.8S5.5,8.2,5.5,7.2C5.5,6.7,5.7,6.3,6,6c0.4-0.3,0.8-0.6,1.4-0.6c0.5,0,1,0.2,1.3,0.5C9.1,6.2,9.3,6.7,9.3,7.2z
	 M8.6,8.6"/>
<path id="Shape" class="st0" d="M21.2,19.7l-0.9,0.9l-1.1-1.1c-0.2,0.2-0.5,0.4-0.7,0.5c-0.8,0.4-1.6,0.6-2.5,0.5
	c-0.4-0.1-0.9-0.2-1.2-0.4c-0.3-0.1-0.5-0.3-0.7-0.5l-0.2-0.1l0.8-1l0.2,0.1c0.2,0.1,0.3,0.3,0.5,0.4c0.3,0.1,0.5,0.2,0.8,0.3
	c0.6,0.1,1.2,0,1.7-0.3c0.1-0.1,0.3-0.2,0.4-0.3l-2.8-2.8c-0.6,0.5-1.4,0.8-2.2,1c-0.3,0-0.5,0-0.8,0c-0.1,0-0.3-0.1-0.4-0.1
	c-0.8-0.4-1.4-1-1.7-1.9c-0.3-1.1,0-2.3,0.8-3.2l-0.8-0.8l0.9-0.9l0.8,0.8l0,0c0.7-0.7,1.7-1,2.7-1c0.5,0.1,1.1,0.2,1.5,0.6l0.2,0.1
	l-0.7,1.1l-0.2-0.1c-0.3-0.2-0.6-0.3-0.9-0.3c-0.6,0-1.3,0.2-1.7,0.6l2.6,2.6c0.8-0.8,1.9-1.2,3-1.2l0.1,0c0.8,0.2,1.5,0.6,2,1.3
	c0.5,0.8,0.6,1.7,0.3,2.6c-0.1,0.6-0.4,1.1-0.7,1.5c-0.1,0.1-0.1,0.2-0.2,0.2L21.2,19.7z M16.6,15.1l2.7,2.7c0,0,0-0.1,0.1-0.1
	c0.2-0.3,0.4-0.7,0.5-1.1c0.2-0.5,0.1-1.1-0.1-1.6c-0.3-0.4-0.7-0.6-1.1-0.7C17.9,14.3,17.2,14.6,16.6,15.1z M12.2,12.5
	c-0.5,0.5-0.7,1.2-0.5,1.9c0.2,0.5,0.5,0.9,0.9,1.1c0.1,0,0.1,0,0.2,0.1c0.1,0,0.3,0,0.4,0h0c0.5-0.1,1-0.3,1.4-0.6L12.2,12.5z"/>
</svg>
