<?xml version="1.0" encoding="utf-8"?>
<!-- Generator: Adobe Illustrator 22.1.0, SVG Export Plug-In . SVG Version: 6.00 Build 0)  -->
<svg version="1.1" id="Layer_1" xmlns="http://www.w3.org/2000/svg" xmlns:xlink="http://www.w3.org/1999/xlink" x="0px" y="0px"
	 viewBox="0 0 18 16.3" style="enable-background:new 0 0 18 16.3;" xml:space="preserve">
<title>icon</title>
<g>
	<path d="M17.3,0L0,2.4l0.6,4.1l17.3-2.4L17.3,0z M1.5,5.3L1.3,3.4l3.2-0.4L2.8,5l0,0L1.5,5.3z M4.4,4.9L6,2.7l3-0.4L7.4,4.4l0,0
		L4.4,4.9z M8.9,4.2l1.6-2.2l3-0.4L12,3.8l0,0L8.9,4.2z M13.5,3.6l1.6-2.2l1.2-0.2l0.3,1.9L13.5,3.6z"/>
	<path d="M0.6,6.5v9.8H18V6.5H0.6z M12.3,7.6L12.3,7.6l1.9,1.9h-3L9.2,7.6H12.3z M7.7,7.6L7.7,7.6l1.9,1.9h-3L4.6,7.6H7.7z M1.7,7.6
		H3l0,0l1.9,1.9H1.7V7.6z M16.9,15.2H1.7v-4.5h15.2V15.2z M16.9,9.6h-1.2l-1.9-1.9h3.1V9.6z"/>
</g>
</svg>
