<?xml version="1.0" encoding="UTF-8"?>
<svg width="18px" height="18px" viewBox="0 0 18 18" version="1.1" xmlns="http://www.w3.org/2000/svg" xmlns:xlink="http://www.w3.org/1999/xlink">
    <!-- Generator: Sketch 51.2 (57519) - http://www.bohemiancoding.com/sketch -->
    <title>phone</title>
    <desc>Created with Sketch.</desc>
    <defs></defs>
    <g id="Icons" stroke="none" stroke-width="1" fill="none" fill-rule="evenodd">
        <g id="phone" fill="#000000" fill-rule="nonzero">
            <path d="M13.68458,18 C11.65786,18 8.6539,16.563 5.04533,12.9548 C-0.08452,7.82459 -0.82657,3.91531 0.71242,2.30123 L0.745,2.26581 L2.64068,0.37014 C2.87670081,0.132741051 3.19779066,-0.000516256719 3.53255,4.771506e-16 L3.53326,4.771506e-16 C3.86784098,-0.000840034403 4.18885779,0.132183608 4.42478,0.36943 L7.48788,3.43254 C7.97958757,3.92565465 7.97943101,4.72370831 7.48753,5.21663 L6.26377,6.44 C6.77312561,7.61737853 7.49606991,8.69027415 8.39605,9.60444 C9.30898522,10.5055012 10.3817126,11.2287022 11.55939,11.73707 L12.78385,10.5126 C13.2769489,10.0209815 14.0748511,10.0209815 14.56795,10.5126 L17.63035,13.57536 C18.121186,14.0681823 18.1216597,14.8649544 17.63141,15.35836 L15.68509,17.30114 C15.1334445,17.7835577 14.4166219,18.0339731 13.68458,18 Z M1.5161,3.08755 C0.22788,4.465 2.11788,8.437 5.84015,12.16 C9.62228,15.94071 13.50815,17.79281 14.90975,16.48724 L14.97918,16.42065 L16.83553,14.5643 C16.8884813,14.510434 16.8884813,14.424066 16.83553,14.3702 L13.77313,11.30744 C13.7192481,11.2540541 13.6323639,11.254215 13.57868,11.3078 L11.84842,13.038 L11.5183,12.92749 C8.54350879,11.8046592 6.19549853,9.45638662 5.073,6.48147 L4.96249,6.15136 L6.69271,4.42181 C6.74618984,4.36802481 6.74618984,4.28114519 6.69271,4.22736 L3.6296,1.16425 C3.60420012,1.13850166 3.56942591,1.12418266 3.53326,1.12458 C3.49656141,1.12434694 3.46131853,1.13891851 3.4355,1.165 L1.5161,3.08755 Z" id="Shape"></path>
        </g>
    </g>
</svg>