<?xml version="1.0" encoding="UTF-8"?>
<svg width="24px" height="24px" viewBox="0 0 24 24" version="1.1" xmlns="http://www.w3.org/2000/svg" xmlns:xlink="http://www.w3.org/1999/xlink">
    <!-- Generator: Sketch 47.1 (45422) - http://www.bohemiancoding.com/sketch -->
    <title>Fill 1</title>
    <desc>Created with Sketch.</desc>
    <defs></defs>
    <g id="Project-(Gigabit)" stroke="none" stroke-width="1" fill="none" fill-rule="evenodd">
        <g id="Plans-(Internet)---Gigabit" transform="translate(-840.000000, -760.000000)" fill="#FFFFFF">
            <g id="Plans" transform="translate(0.000000, 145.000000)">
                <g id="Bundle-upsell" transform="translate(810.000000, 284.000000)">
                    <g id="VOD" transform="translate(30.000000, 329.000000)">
                        <path d="M12,2 C5.372,2 0,7.372 0,14 C0,20.628 5.372,26 12,26 C18.628,26 24,20.628 24,14 C24,7.372 18.628,2 12,2 M12,3.5 C17.7893333,3.5 22.5,8.21066667 22.5,14 C22.5,19.7906667 17.7893333,24.5 12,24.5 C6.21066667,24.5 1.5,19.7906667 1.5,14 C1.5,8.21066667 6.21066667,3.5 12,3.5 M9.75,10.1034667 L9.75,17.8954667 L16.4993333,13.9994667 L9.75,10.1034667 Z M8.25,20.4941333 L8.25,7.5048 L19.4993333,13.9994667 L8.25,20.4941333 Z" id="Fill-1"></path>
                    </g>
                </g>
            </g>
        </g>
    </g>
</svg>