<?xml version="1.0" encoding="UTF-8"?>
<svg width="12px" height="12px" viewBox="0 0 12 12" version="1.1" xmlns="http://www.w3.org/2000/svg" xmlns:xlink="http://www.w3.org/1999/xlink">
    <!-- Generator: Sketch 46.1 (44463) - http://www.bohemiancoding.com/sketch -->
    <title>Icon question mark</title>
    <desc>Created with Sketch.</desc>
    <defs></defs>
    <g id="Shop" stroke="none" stroke-width="1" fill="none" fill-rule="evenodd">
        <g id="Shop---Triple-Plays" transform="translate(-351.000000, -1126.000000)" fill="#9B9B9B">
            <g id="Pricing-Section" transform="translate(0.000000, 160.000000)">
                <g id="Pricing-Grid" transform="translate(272.000000, 368.000000)">
                    <path d="M85,610 C81.6862915,610 79,607.313708 79,604 C79,600.686292 81.6862915,598 85,598 C88.3137085,598 91,600.686292 91,604 C91,607.313708 88.3137085,610 85,610 Z M85.2347236,608.65843 C85.4885226,608.65843 85.7126339,608.58111 85.906227,608.426749 C86.0998201,608.272108 86.1967724,608.059617 86.1967724,607.789089 C86.1967724,607.545577 86.1041799,607.340911 85.9192024,607.174812 C85.7340174,607.008713 85.5058578,606.925524 85.2347236,606.925524 C84.9589183,606.925524 84.7266065,607.008713 84.5372693,607.174812 C84.3475169,607.340911 84.2529521,607.545577 84.2529521,607.789089 C84.2529521,608.063436 84.3509424,608.277045 84.5467154,608.429543 C84.7425922,608.582134 84.9719975,608.65843 85.2347236,608.65843 Z M82,601.922641 C82,602.100384 82.0829388,602.265645 82.2489203,602.418143 C82.4143827,602.57092 82.6179409,602.64703 82.8591798,602.64703 C83.2680609,602.64703 83.5457347,602.428856 83.6922011,601.992043 C83.8470756,601.574886 84.0364128,601.259084 84.2604203,601.044543 C84.484324,600.830096 84.833103,600.722872 85.3066536,600.722872 C85.7112788,600.722872 86.0417884,600.82935 86.2978711,601.041655 C86.5540576,601.254146 86.6823585,601.515079 86.6823585,601.824081 C86.6823585,601.982541 86.6402143,602.129356 86.5564451,602.264527 C86.4722606,602.399884 86.3689764,602.522572 86.2460733,602.63259 C86.1235854,602.742702 85.9244907,602.905913 85.6489968,603.122317 C85.3345766,603.369555 85.0849298,603.583071 84.8999523,603.762771 C84.7145596,603.942471 84.5660171,604.150956 84.4543248,604.3886 C84.3422173,604.626336 84.2862673,604.907298 84.2862673,605.232043 C84.2862673,605.490833 84.3626665,605.68609 84.5154649,605.817255 C84.6683672,605.9487 84.8566663,606.014282 85.0806738,606.014282 C85.5109384,606.014282 85.7671249,605.813529 85.8491295,605.411463 C85.89636,605.222262 85.9320683,605.089885 85.9557355,605.014708 C85.979195,604.939344 86.0125159,604.863887 86.055698,604.788523 C86.0988802,604.713159 86.1641725,604.630249 86.2526129,604.539234 C86.3407419,604.448593 86.4581434,604.343325 86.6048174,604.223525 C87.134318,603.798543 87.5011588,603.496156 87.7058588,603.316549 C87.9101437,603.136756 88.0868169,602.923333 88.2353594,602.676095 C88.3837981,602.428856 88.458225,602.141001 88.458225,601.812622 C88.458225,601.395186 88.3280557,601.008957 88.0675095,600.653377 C87.8068594,600.298076 87.4378388,600.016928 86.9600322,599.81012 C86.4821219,599.603404 85.9309265,599.5 85.3066536,599.5 C84.6349425,599.5 84.0474159,599.623806 83.5435548,599.871044 C83.0397975,600.118283 82.6566596,600.430266 82.3941411,600.806993 C82.1315188,601.183813 82,601.555602 82,601.922641 Z" id="Icon-question-mark"></path>
                </g>
            </g>
        </g>
    </g>
</svg>