<?xml version="1.0" encoding="UTF-8"?>
<svg width="20px" height="20px" viewBox="0 0 20 20" version="1.1" xmlns="http://www.w3.org/2000/svg" xmlns:xlink="http://www.w3.org/1999/xlink">
    <!-- Generator: Sketch 46.1 (44463) - http://www.bohemiancoding.com/sketch -->
    <title>Retail</title>
    <desc>Created with Sketch.</desc>
    <defs></defs>
    <g id="Non-Gig-Pages" stroke="none" stroke-width="1" fill="none" fill-rule="evenodd">
        <g id="Homepage---Cart-Balanced-(Non-Gig)" transform="translate(-280.000000, -181.000000)" fill="#959595">
            <g id="Banner---Waived-Act." transform="translate(0.000000, 160.000000)">
                <path d="M293.750122,28.7799274 C292.905202,28.7799274 292.220273,28.0949983 292.220273,27.2498777 C292.220273,26.4049578 292.905202,25.719828 293.750122,25.719828 C294.595042,25.719828 295.279971,26.4049578 295.279971,27.2498777 C295.279971,28.0949983 294.595042,28.7799274 293.750122,28.7799274 M298.750185,21 L290.107271,21 C289.761795,21 289.284834,21.1979309 289.040934,21.4420322 L280.366303,30.1160611 C279.877899,30.6044645 279.877899,31.395385 280.366303,31.8835876 L289.116212,40.6334967 C289.604615,41.1214986 290.395536,41.1214986 290.883939,40.6334967 L299.558169,31.9592671 C299.80227,31.714965 300,31.2378031 300,30.8925282 L300,22.2502164 C300,21.5592651 299.440735,21 298.750185,21" id="Retail"></path>
            </g>
        </g>
    </g>
</svg>