<?xml version="1.0" encoding="UTF-8"?>
<svg width="18px" height="18px" viewBox="0 0 18 18" version="1.1" xmlns="http://www.w3.org/2000/svg" xmlns:xlink="http://www.w3.org/1999/xlink">
    <!-- Generator: Sketch 51.2 (57519) - http://www.bohemiancoding.com/sketch -->
    <title>Shape</title>
    <desc>Created with Sketch.</desc>
    <defs></defs>
    <g id="Symbols" stroke="none" stroke-width="1" fill="none" fill-rule="evenodd">
        <g id="ICON-/-search" fill="#000000" fill-rule="nonzero">
            <path d="M17.896,17.101 L11.901,11.107 C12.897,9.93 13.5,8.411 13.5,6.75 C13.5,3.022 10.478,0 6.75,0 C3.022,0 0,3.022 0,6.75 C0,10.478 3.022,13.5 6.75,13.5 C8.411,13.5 9.93,12.897 11.106,11.902 L17.101,17.897 L17.896,17.101 Z M6.75,12.375 C3.648,12.375 1.125,9.852 1.125,6.75 C1.125,3.648 3.648,1.125 6.75,1.125 C9.852,1.125 12.375,3.648 12.375,6.75 C12.375,9.852 9.852,12.375 6.75,12.375 Z" id="Shape"></path>
        </g>
    </g>
</svg>