<?xml version="1.0" encoding="UTF-8"?>
<svg width="18px" height="18px" viewBox="0 0 18 18" version="1.1" xmlns="http://www.w3.org/2000/svg" xmlns:xlink="http://www.w3.org/1999/xlink">
    <!-- Generator: Sketch 51.3 (57544) - http://www.bohemiancoding.com/sketch -->
    <title>ICON / shopping</title>
    <desc>Created with Sketch.</desc>
    <defs></defs>
    <g id="Test" stroke="none" stroke-width="1" fill="none" fill-rule="evenodd">
        <g id="Home---SubNav" transform="translate(-21.000000, -69.000000)" fill="#000000" fill-rule="nonzero">
            <g id="Sub-Nav" transform="translate(0.000000, 56.000000)">
                <g id="ICON-/-shopping" transform="translate(21.000000, 13.000000)">
                    <path d="M16.74805,10.57812 L17.67773,2.751 L3.78662,2.751 L3.43994,1.05859 L0.36377,0 L0,1.05835 L2.47217,1.90894 L4.95605,14.04309 C4.11682077,14.4980947 3.68867412,15.4607425 3.9128208,16.3886936 C4.13696747,17.3166446 4.95732376,17.9777164 5.91171447,17.999472 C6.86610519,18.0212276 7.71573233,17.3982236 7.98193,16.48145 L12.396,16.48145 C12.6912122,17.489747 13.6826785,18.1277401 14.7226678,17.9786245 C15.762657,17.8295088 16.5349107,16.9386301 16.5349107,15.888005 C16.5349107,14.8373799 15.762657,13.9465012 14.7226678,13.7973855 C13.6826785,13.6482699 12.6912122,14.286263 12.396,15.29456 L7.98193,15.29456 C7.728203,14.4267463 6.94838245,13.8180878 6.04493,13.78271 L5.66114,11.90747 L16.74805,10.57812 Z M14.41305,14.96399 C14.9233259,14.9641667 15.336857,15.377944 15.33673,15.8882199 C15.336603,16.3984959 14.922866,16.8120672 14.41259,16.8119899 C13.9023141,16.8119126 13.4887024,16.398216 13.48873,15.88794 C13.4896882,15.3778955 13.9030452,14.9647264 14.41309,14.964 L14.41305,14.96399 Z M16.418,3.86987 L15.74023,9.572 L5.436,10.8075 L4.01562,3.86987 L16.418,3.86987 Z M6.88867,15.88794 C6.88871853,16.2617242 6.6635809,16.5987256 6.31825398,16.7417779 C5.97292707,16.8848301 5.57542958,16.8057562 5.31114141,16.5414337 C5.04685325,16.2771112 4.96783099,15.8796034 5.11092806,15.5342951 C5.25402513,15.1889868 5.59105583,14.9638929 5.96484,14.96399 C6.47467493,14.9650245 6.88770173,15.3781049 6.88867,15.88794 Z" id="Shape"></path>
                </g>
            </g>
        </g>
    </g>
</svg>