<?xml version="1.0" encoding="UTF-8"?>
<svg width="30px" height="20px" viewBox="0 0 30 20" version="1.1" xmlns="http://www.w3.org/2000/svg" xmlns:xlink="http://www.w3.org/1999/xlink">
    <!-- Generator: Sketch 52.4 (67378) - http://www.bohemiancoding.com/sketch -->
    <title>Shape</title>
    <desc>Created with Sketch.</desc>
    <g id="Pages" stroke="none" stroke-width="1" fill="none" fill-rule="evenodd">
        <g id="Plans---Popular" transform="translate(-160.000000, -2032.000000)" fill="#000000" fill-rule="nonzero">
            <g id="FAQs" transform="translate(40.000000, 1481.000000)">
                <g id="Speed" transform="translate(120.000000, 551.000000)">
                    <path d="M29.8583333,14.8584 C29.8583333,6.65233227 23.2060011,5.02482532e-16 14.9999333,0 C6.79386561,-5.02459944e-16 0.141533333,6.65233227 0.141533333,14.8584 L0.141533333,15.7882667 L29.8583333,15.7882667 L29.8583333,14.8584 Z M17.5716667,13.9285333 L12.4283333,13.9285333 C12.4761929,12.5428178 13.6134083,11.4442014 14.99995,11.4442014 C16.3864917,11.4442014 17.5237071,12.5428178 17.5715667,13.9285333 L17.5716667,13.9285333 Z M19.4312,13.9285333 C19.4180408,13.4706275 19.3334725,13.0175833 19.18055,12.5857667 L24.5158333,9.02895 L23.48475,7.48088333 L18.22265,10.9885333 C16.9928464,9.67139875 15.0868371,9.23222199 13.4046563,9.87838618 C11.7224756,10.5245504 10.6006241,12.1267979 10.56885,13.9285333 L2.03368333,13.9285333 C2.5218264,7.12785444 8.18141617,1.85994113 14.9995917,1.85994113 C21.8177672,1.85994113 27.4773569,7.12785444 27.9655,13.9285333 L19.4312,13.9285333 Z M0,17.6481167 L30,17.6481167 L30,19.50785 L0,19.50785 L0,17.6481167 Z" id="Shape"></path>
                </g>
            </g>
        </g>
    </g>
</svg>