<svg xmlns="http://www.w3.org/2000/svg" viewBox="0 0 13.11 18"><defs><style>.cls-1{fill:#fff;}</style></defs><title>Asset 1</title><g id="Layer_2" data-name="Layer 2"><g id="Layer_2-2" data-name="Layer 2"><polygon class="cls-1" points="6.23 10.98 9.59 8.64 10.23 9.55 6.87 11.9 6.23 10.98 6.23 10.98"/><path class="cls-1" d="M7.15,4.91V4.45a2.25,2.25,0,1,0-.93,0V4.9A6.58,6.58,0,0,0,3,6H3l-.48-.62.6-.46L2.4,4,.33,5.6,1,6.48,1.61,6l.48.62A6.55,6.55,0,1,0,7.15,4.91ZM5.37,2.25A1.31,1.31,0,1,1,7.15,3.47V2.35H6.22V3.47a1.31,1.31,0,0,1-.85-1.22ZM6.55,16.89A5.45,5.45,0,1,1,12,11.44a5.45,5.45,0,0,1-5.44,5.45Z"/></g></g></svg>