<?xml version="1.0" encoding="UTF-8"?>
<svg width="24px" height="22px" viewBox="0 0 24 22" version="1.1" xmlns="http://www.w3.org/2000/svg" xmlns:xlink="http://www.w3.org/1999/xlink">
    <!-- Generator: Sketch 47.1 (45422) - http://www.bohemiancoding.com/sketch -->
    <title>Fill 1</title>
    <desc>Created with Sketch.</desc>
    <defs></defs>
    <g id="Project-(Gigabit)" stroke="none" stroke-width="1" fill="none" fill-rule="evenodd">
        <g id="Plans-(Internet)---Gigabit" transform="translate(-840.000000, -652.000000)" fill="#FFFFFF">
            <g id="Plans" transform="translate(0.000000, 145.000000)">
                <g id="Bundle-upsell" transform="translate(810.000000, 284.000000)">
                    <g id="HBO/DVR" transform="translate(30.000000, 221.000000)">
                        <path d="M0,17.0022594 L24.0014816,17.0022594 L24.0014816,2 L0,2 L0,17.0022594 Z M1.5000926,15.5021668 L1.5000926,3.5000926 L22.501389,3.5000926 L22.501389,15.5021668 L1.5000926,15.5021668 Z M12.7501204,18.5016853 L12.7514538,18.5016853 L12.7514538,20.7991604 C14.9222545,20.9085005 16.6103587,21.5312056 18.0824495,22.4099265 L17.3090685,23.6100006 C15.9836533,22.8472869 14.1395395,22.2525835 12.0020742,22.2525835 C9.86460892,22.2525835 8.10183344,22.8246188 6.69507994,23.6100006 L5.98036916,22.3872585 C7.61513673,21.4271992 9.07922711,20.9085005 11.2513612,20.7991604 L11.2513612,18.5016853 L12.7501204,18.5016853 Z" id="Fill-1"></path>
                    </g>
                </g>
            </g>
        </g>
    </g>
</svg>