<?xml version="1.0" encoding="UTF-8"?>
<svg width="30px" height="24px" viewBox="0 0 30 24" version="1.1" xmlns="http://www.w3.org/2000/svg" xmlns:xlink="http://www.w3.org/1999/xlink">
    <!-- Generator: Sketch 42 (36781) - http://www.bohemiancoding.com/sketch -->
    <title>twiiter</title>
    <desc>Created with Sketch.</desc>
    <defs></defs>
    <g id="Symbols" stroke="none" stroke-width="1" fill="none" fill-rule="evenodd">
        <g id="Footer" transform="translate(-1158.000000, -228.000000)" fill="#59ADEB">
            <g id="Links">
                <g transform="translate(280.000000, 226.000000)">
                    <g id="social" transform="translate(841.000000, 2.000000)">
                        <path d="M63.5098592,5.97633803 C63.5208451,6.23577465 63.5267606,6.49774648 63.5267606,6.76056338 C63.5267606,14.7684507 57.4329577,24 46.2873239,24 C42.8647887,24 39.6814085,22.9985915 37,21.276338 C37.4740845,21.3329577 37.9566197,21.3625352 38.4459155,21.3625352 C41.283662,21.3625352 43.8966197,20.3940845 45.9695775,18.7698592 C43.3177465,18.7216901 41.0816901,16.9690141 40.3101408,14.5622535 C40.6802817,14.6349296 41.0605634,14.6678873 41.4501408,14.6678873 C42.0028169,14.6678873 42.5377465,14.591831 43.0464789,14.4566197 C40.2738028,13.9022535 38.1856338,11.4523944 38.1856338,8.51492958 C38.1856338,8.48873239 38.1856338,8.46676056 38.1864789,8.44056338 C39.0028169,8.89267606 39.9366197,9.16816901 40.9304225,9.19521127 C39.3053521,8.11014085 38.235493,6.25521127 38.235493,4.1543662 C38.235493,3.04309859 38.5338028,2.00197183 39.0560563,1.10873239 C42.0433803,4.77295775 46.5078873,7.18647887 51.5453521,7.43830986 C51.4405634,6.99464789 51.3873239,6.53239437 51.3873239,6.05577465 C51.3873239,2.71352113 54.1008451,0 57.4464789,0 C59.1898592,0 60.7642254,0.734366197 61.8704225,1.91239437 C63.2487324,1.64028169 64.5467606,1.13661972 65.716338,0.44028169 C65.2642254,1.85830986 64.3033803,3.04309859 63.0526761,3.79267606 C64.2788732,3.65070423 65.4459155,3.32366197 66.5326761,2.84028169 C65.7188732,4.05380282 64.6929577,5.11943662 63.5098592,5.97633803" id="twiiter"></path>
                    </g>
                </g>
            </g>
        </g>
    </g>
</svg>