<svg width="30" height="30" xmlns="http://www.w3.org/2000/svg"><g fill="#000" fill-rule="evenodd"><path d="M30 20.667c0-3.834-2.333-7.167-5.667-8.5 0-6.667-5.5-12-12.166-12C5.5 0 0 5.5 0 12.167 0 14.667.833 17 2.167 19L0 24.333l5.333-2.166c2 1.333 4.167 2.166 6.667 2.166C13.5 27.667 16.667 30 20.5 30c2 0 3.833-.667 5.333-1.667L30 30l-1.667-4.167c1-1.5 1.667-3.166 1.667-5.166zm-24.5-.5l-1 .333-1.167.5.5-1.333.334-1-.5-.834A10.103 10.103 0 0 1 1.833 12c0-5.667 4.667-10.333 10.334-10.333C17.833 1.667 22.5 6.333 22.5 12s-4.667 10.333-10.333 10.333C10 22.333 8 21.667 6.333 20.5l-.833-.333zm21.333 4.666l-.5.834.334 1-1-.334-.834.5a7.293 7.293 0 0 1-4.166 1.334c-2.834 0-5.334-1.667-6.5-3.834 5.166-.833 9.333-5 10.166-10.166 2.334 1.333 3.834 3.666 3.834 6.5 0 1.5-.5 3-1.334 4.166z" fill-rule="nonzero"/><path d="M12.167 7.5c1 0 1.833.667 1.833 1.667s-.667 1.5-1.333 2c-1 .666-1.667 1.166-1.667 3.166h2c0-1.166.5-1.333 1.833-2.333.667-.5 1.667-1.167 1.667-2.833 0-2-1.5-3.5-4.167-3.5-2.666 0-4.166 1.833-4.333 4h2c0-1.334.833-2.167 2.167-2.167z" fill-rule="nonzero"/><path d="M10.67 16.17h2.5v2.5h-2.5z"/></g></svg>