<?xml version="1.0" encoding="UTF-8"?>
<svg width="21px" height="20px" viewBox="0 0 21 20" version="1.1" xmlns="http://www.w3.org/2000/svg" xmlns:xlink="http://www.w3.org/1999/xlink">
    <!-- Generator: Sketch 47.1 (45422) - http://www.bohemiancoding.com/sketch -->
    <title>Shape</title>
    <desc>Created with Sketch.</desc>
    <defs></defs>
    <g id="Project-(Gigabit)" stroke="none" stroke-width="1" fill="none" fill-rule="evenodd">
        <g id="Homepage---Gigabit" transform="translate(-822.000000, -10.000000)" fill-rule="nonzero" fill="#000000">
            <g id="Header">
                <g id="Ready-to-order-CTA" transform="translate(822.000000, 10.000000)">
                    <path d="M20,13.7777778 C20,11.2222222 18.4444444,9.11111111 16.2222222,8.11111111 C16.2222222,3.66666667 12.5555556,0 8.11111111,0 C3.66666667,-9.86864911e-16 0,3.66666667 0,8.11111111 C0,9.77777778 0.555555556,11.3333333 1.44444444,12.6666667 L0,16.2222222 L3.55555556,14.7777778 C4.88888889,15.6666667 6.44444444,16.2222222 8.11111111,16.2222222 C9.11111111,18.4444444 11.2222222,20 13.7777778,20 C15.1111111,20 16.3333333,19.5555556 17.3333333,18.8888889 L20.1111111,20 L19,17.2222222 C19.5555556,16.2222222 20,15.1111111 20,13.7777778 Z M3.66666667,13.4444444 L2.22222222,14 L2.77777778,12.5555556 L2.44444444,12 C1.66666667,10.8888889 1.22222222,9.55555556 1.22222222,8.11111111 C1.22222222,4.33333333 4.33333333,1.22222222 8.11111111,1.22222222 C11.8888889,1.22222222 15,4.33333333 15,8.11111111 C15,11.8888889 11.8888889,15 8.11111111,15 C6.66666667,15 5.33333333,14.5555556 4.22222222,13.7777778 L3.66666667,13.4444444 Z M17.8888889,16.5555556 L17.5555556,17.1111111 L17.7777778,17.7777778 L17.1111111,17.5555556 L16.5555556,17.8888889 C15.7777778,18.4444444 14.7777778,18.7777778 13.7777778,18.7777778 C11.8888889,18.7777778 10.2222222,17.6666667 9.44444444,16.2222222 C12.8888889,15.6666667 15.6666667,12.8888889 16.2222222,9.44444444 C17.7777778,10.3333333 18.7777778,11.8888889 18.7777778,13.7777778 C18.7777778,14.7777778 18.4444444,15.7777778 17.8888889,16.5555556 Z M7.36132351,9.89406367 L11.2560823,6 L11.8080078,6.5526206 L7.36132351,11 L5,8.63798137 L5.55192548,8.08536077 L7.36132351,9.89406367 Z" id="Shape"></path>
                </g>
            </g>
        </g>
    </g>
</svg>