<?xml version="1.0" encoding="UTF-8"?>
<svg width="36px" height="36px" viewBox="0 0 36 36" version="1.1" xmlns="http://www.w3.org/2000/svg" xmlns:xlink="http://www.w3.org/1999/xlink">
    <!-- Generator: Sketch 47.1 (45422) - http://www.bohemiancoding.com/sketch -->
    <title>Shape</title>
    <desc>Created with Sketch.</desc>
    <defs></defs>
    <g id="Project-(Gigabit)" stroke="none" stroke-width="1" fill="none" fill-rule="evenodd">
        <g id="Support" transform="translate(-817.000000, -1100.000000)" fill-rule="nonzero" fill="#000000">
            <g id="Group" transform="translate(170.000000, 1023.000000)">
                <g id="Order/repair-status" transform="translate(647.000000, 77.000000)">
                    <path d="M36,18 C36,8.058 27.942,0 18,0 C8.058,0 0,8.058 0,18 C0,27.942 8.058,36 18,36 C20.156,36 22.21,35.598 24.122,34.898 C25.242,35.476 26.494,35.834 27.84,35.834 C32.344,35.834 36,32.186 36,27.676 C36,26.284 35.618,24.994 35.004,23.848 C35.638,22.014 36,20.052 36,18 Z M6.028,28.206 C3.678,25.454 2.25,21.894 2.25,18 C2.25,9.316 9.316,2.25 18,2.25 C26.684,2.25 33.75,9.316 33.75,18 C33.75,19.256 33.552,20.456 33.268,21.626 C31.824,20.328 29.934,19.516 27.84,19.516 C25.084,19.516 22.66,20.892 21.184,22.984 C20.186,22.776 19.176,22.63 18.148,22.63 C13.566,22.63 9.2,24.666 6.028,28.206 Z M7.61,29.806 C10.362,26.68 14.168,24.88 18.148,24.88 C18.828,24.88 19.494,24.952 20.152,25.052 C19.87,25.88 19.682,26.752 19.682,27.674 C19.682,29.834 20.536,31.782 21.902,33.24 C20.656,33.57 19.35,33.75 18,33.75 C14.018,33.75 10.386,32.252 7.61,29.806 Z M27.84,33.584 C24.582,33.584 21.934,30.934 21.934,27.676 C21.934,24.418 24.584,21.766 27.84,21.766 C31.098,21.766 33.75,24.416 33.75,27.676 C33.75,30.934 31.098,33.584 27.84,33.584 Z M27.12,28.358 L25.538,26.778 L24.212,28.104 L27.12,31.01 L31.788,26.342 L30.462,25.014 L27.12,28.358 Z M24.75,13.5 C24.75,9.772 21.728,6.75 18,6.75 C14.272,6.75 11.25,9.772 11.25,13.5 C11.25,17.228 14.272,20.25 18,20.25 C21.728,20.25 24.75,17.228 24.75,13.5 Z M18,18 C15.518,18 13.5,15.982 13.5,13.5 C13.5,11.018 15.518,9 18,9 C20.482,9 22.5,11.018 22.5,13.5 C22.5,15.982 20.482,18 18,18 Z" id="Shape"></path>
                </g>
            </g>
        </g>
    </g>
</svg>