<?xml version="1.0" encoding="UTF-8"?>
<svg width="30px" height="23px" viewBox="0 0 30 23" version="1.1" xmlns="http://www.w3.org/2000/svg" xmlns:xlink="http://www.w3.org/1999/xlink">
    <!-- Generator: Sketch 47.1 (45422) - http://www.bohemiancoding.com/sketch -->
    <title>Fill 1</title>
    <desc>Created with Sketch.</desc>
    <defs></defs>
    <g id="Project-(Gigabit)" stroke="none" stroke-width="1" fill="none" fill-rule="evenodd">
        <g id="Plans-(Most-popular)---Gigabit" transform="translate(-170.000000, -2148.000000)" fill="#000000">
            <g id="FAQs" transform="translate(0.000000, 1741.000000)">
                <g id="Fios-TV" transform="translate(170.000000, 407.000000)">
                    <path d="M0,22.5 L30,22.5 L30,0 L0,0 L0,22.5 Z M25.3116667,1.875 L28.125,1.875 L28.125,20.625 L25.3116667,20.625 L25.3116667,13.125 L27.1866667,13.125 L27.1866667,9.375 L25.3116667,9.375 L25.3116667,1.875 Z M1.875,20.625 L23.4366667,20.625 L23.4366667,1.875 L1.875,1.875 L1.875,20.625 Z M10.9383333,8.632 L15.4733333,11.2503333 L10.9383333,13.8686667 L10.9383333,8.632 Z M9.12333333,5.49033333 L9.12333333,17.012 L19.1016667,11.2503333 L9.12333333,5.49033333 Z" id="Fill-1"></path>
                </g>
            </g>
        </g>
    </g>
</svg>