<?xml version="1.0" encoding="UTF-8"?>
<svg width="30px" height="30px" viewBox="0 0 30 30" version="1.1" xmlns="http://www.w3.org/2000/svg" xmlns:xlink="http://www.w3.org/1999/xlink">
    <!-- Generator: Sketch 47.1 (45422) - http://www.bohemiancoding.com/sketch -->
    <title>Fill 1</title>
    <desc>Created with Sketch.</desc>
    <defs></defs>
    <g id="Project-(Gigabit)" stroke="none" stroke-width="1" fill="none" fill-rule="evenodd">
        <g id="Plans-(Most-popular)---Gigabit" transform="translate(-651.000000, -2144.000000)" fill="#000000">
            <g id="FAQs" transform="translate(0.000000, 1741.000000)">
                <g id="Upgrade" transform="translate(651.000000, 403.000000)">
                    <path d="M15,28.125 C12.56,28.125 10.1766667,27.4483333 8.10833333,26.17 L7.38,25.72 L6.56333333,25.975 L3.19,27.03 L4.13333333,23.4933333 L4.345,22.7 L3.90666667,22.0066667 C2.57666667,19.91 1.875,17.4866667 1.875,15 C1.875,7.76333333 7.76333333,1.875 15,1.875 C22.2366667,1.875 28.125,7.76333333 28.125,15 C28.125,22.2366667 22.2366667,28.125 15,28.125 M15,0 C6.715,0 0,6.715 0,15 C0,17.9466667 0.853333333,20.6916667 2.32,23.01 L0.5,29.8333333 L7.12166667,27.7633333 C9.41166667,29.18 12.11,30 15,30 C23.285,30 30,23.285 30,15 C30,6.715 23.285,0 15,0 M15,20.2295 C15.92,20.2295 16.6666667,20.9761667 16.6666667,21.8961667 C16.6666667,22.8178333 15.92,23.5628333 15,23.5628333 C14.08,23.5628333 13.3333333,22.8178333 13.3333333,21.8961667 C13.3333333,20.9761667 14.08,20.2295 15,20.2295 Z M14.5231667,16.8326667 L13.3331667,6.83266667 L16.6665,6.83266667 L15.4765,16.8326667 L14.5231667,16.8326667 Z" id="Fill-1"></path>
                </g>
            </g>
        </g>
    </g>
</svg>