<?xml version="1.0" encoding="UTF-8"?>
<svg width="30px" height="30px" viewBox="0 0 30 30" version="1.1" xmlns="http://www.w3.org/2000/svg" xmlns:xlink="http://www.w3.org/1999/xlink">
    <!-- Generator: Sketch 47.1 (45422) - http://www.bohemiancoding.com/sketch -->
    <title>Fill 1</title>
    <desc>Created with Sketch.</desc>
    <defs></defs>
    <g id="Project-(Gigabit)" stroke="none" stroke-width="1" fill="none" fill-rule="evenodd">
        <g id="Plans-(Most-popular)---Gigabit" transform="translate(-170.000000, -2010.000000)" fill="#000000">
            <g id="FAQs" transform="translate(0.000000, 1741.000000)">
                <g id="Fios-vs-cable" transform="translate(170.000000, 269.000000)">
                    <path d="M18.7033333,27.585 C20.4666667,25.0716667 21.66,20.8233333 21.7966667,15.9383333 L28.0783333,15.9383333 C27.685,21.4733333 23.8516667,26.0666667 18.7033333,27.585 L18.7033333,27.585 Z M1.92166667,15.9366667 L8.20333333,15.9366667 C8.34166667,20.8216667 9.53666667,25.07 11.2966667,27.5833333 C6.14833333,26.0666667 2.31666667,21.4733333 1.92166667,15.9366667 L1.92166667,15.9366667 Z M11.2966667,2.415 C9.53666667,4.92833333 8.34166667,9.17666667 8.20333333,14.0633333 L1.92166667,14.0633333 C2.31666667,8.52666667 6.14833333,3.93333333 11.2966667,2.415 L11.2966667,2.415 Z M10.0783333,14.0633333 C10.2983333,6.59666667 13.065,1.875 15,1.875 C16.935,1.875 19.705,6.59666667 19.9216667,14.0616667 L10.0783333,14.0616667 L10.0783333,14.0633333 Z M15,28.125 C13.065,28.125 10.2983333,23.4033333 10.0783333,15.9383333 L19.9216667,15.9383333 C19.705,23.4033333 16.935,28.125 15,28.125 L15,28.125 Z M28.0783333,14.0633333 L21.7966667,14.0633333 C21.6583333,9.17833333 20.465,4.93 18.7033333,2.41666667 C23.8516667,3.93333333 27.685,8.52666667 28.0783333,14.0633333 L28.0783333,14.0633333 Z M15,0 C6.715,0 0,6.715 0,15 C0,23.285 6.715,30 15,30 C23.285,30 30,23.285 30,15 C30,6.715 23.285,0 15,0 L15,0 Z" id="Fill-1"></path>
                </g>
            </g>
        </g>
    </g>
</svg>