<?xml version="1.0" encoding="UTF-8"?>
<svg width="10px" height="10px" viewBox="0 0 10 10" version="1.1" xmlns="http://www.w3.org/2000/svg" xmlns:xlink="http://www.w3.org/1999/xlink">
    <!-- Generator: Sketch 42 (36781) - http://www.bohemiancoding.com/sketch -->
    <title>Clear</title>
    <desc>Created with Sketch.</desc>
    <defs></defs>
    <g id="Modals-(ACOS)" stroke="none" stroke-width="1" fill="none" fill-rule="evenodd">
        <g id="Step-2" transform="translate(-1044.000000, -227.000000)" fill="#959595">
            <g id="modal" transform="translate(364.000000, 205.000000)">
                <path d="M686.894705,26.9999442 L689.607374,24.2875213 C690.130764,23.7642476 690.130764,22.9159523 689.607374,22.3925669 C689.084208,21.8692933 688.236129,21.8692933 687.712627,22.3925669 L685.00007,25.1051015 L682.287401,22.3924553 C681.764234,21.8691816 680.915709,21.8691816 680.392542,22.3924553 C679.869153,22.9157289 679.869153,23.7641359 680.392542,24.2874096 L683.104765,26.9999442 L680.392542,29.7125904 C679.869153,30.2358641 679.869153,31.0842711 680.392542,31.6075447 C680.915597,32.1308184 681.764011,32.1308184 682.287289,31.6075447 L685.00007,28.8948985 L687.712739,31.6074331 C688.236129,32.1308184 689.084208,32.1308184 689.607374,31.6074331 C690.130875,31.0841594 690.130875,30.2358641 689.607374,29.7124787 L686.894705,26.9999442 Z" id="Clear"></path>
            </g>
        </g>
    </g>
</svg>