<?xml version="1.0" encoding="UTF-8"?>
<svg width="18px" height="14px" viewBox="0 0 18 14" version="1.1" xmlns="http://www.w3.org/2000/svg" xmlns:xlink="http://www.w3.org/1999/xlink">
    <!-- Generator: Sketch 51.2 (57519) - http://www.bohemiancoding.com/sketch -->
    <title>Icon / Social / YouTube</title>
    <desc>Created with Sketch.</desc>
    <defs></defs>
    <g id="Icons" stroke="none" stroke-width="1" fill="none" fill-rule="evenodd">
        <g transform="translate(-645.000000, -221.000000)" fill="#000000" id="Icon-/-Social-/-YouTube">
            <g transform="translate(645.000000, 221.000000)">
                <g id="social-youtube">
                    <path d="M17.6,2.8 C17.4,2 16.8,1.4 16,1.2 C14.6,0.8 9,0.8 9,0.8 C9,0.8 3.4,0.8 2,1.2 C1.2,1.4 0.6,2.1 0.4,2.8 C0,4.3 0,7.2 0,7.2 C0,7.2 0,10.1 0.4,11.6 C0.6,12.3 1.2,13 2,13.2 C3.4,13.6 9,13.6 9,13.6 C9,13.6 14.6,13.6 16,13.2 C16.8,13 17.4,12.4 17.6,11.6 C18,10.1 18,7.2 18,7.2 C18,7.2 18,4.3 17.6,2.8 Z M7.2,9.9 L7.2,4.5 L11.9,7.2 L7.2,9.9 Z" id="Shape" fill-rule="nonzero"></path>
                </g>
            </g>
        </g>
    </g>
</svg>