<?xml version="1.0" encoding="utf-8"?>
<!-- Generator: Adobe Illustrator 19.0.0, SVG Export Plug-In . SVG Version: 6.00 Build 0)  -->
<svg version="1.1" id="Layer_1" xmlns="http://www.w3.org/2000/svg" xmlns:xlink="http://www.w3.org/1999/xlink" x="0px" y="0px"
	 viewBox="-64.1 964.7 648.4 150.4" style="enable-background:new -64.1 964.7 648.4 150.4;" xml:space="preserve">
<style type="text/css">
	.st0{fill:url(#SVGID_1_);}
	.st1{fill:url(#SVGID_2_);}
	.st2{opacity:0.43;fill:url(#SVGID_3_);enable-background:new    ;}
	.st3{fill:url(#SVGID_4_);}
	.st4{fill:url(#SVGID_5_);}
	.st5{fill:url(#SVGID_6_);}
	.st6{fill:url(#SVGID_7_);}
	.st7{fill:url(#SVGID_8_);}
	.st8{fill:url(#SVGID_9_);}
	.st9{opacity:0.25;fill:#0FA64A;enable-background:new    ;}
	.st10{fill:url(#SVGID_10_);}
	.st11{opacity:0.17;fill:url(#SVGID_11_);enable-background:new    ;}
	.st12{fill:#FFFFFF;}
</style>
<linearGradient id="SVGID_1_" gradientUnits="userSpaceOnUse" x1="-207.1702" y1="-170.3102" x2="-131.64" y2="-170.3102" gradientTransform="matrix(0.9487 -0.316 -0.316 -0.9487 219.3864 825.4014)">
	<stop  offset="0" style="stop-color:#262262"/>
	<stop  offset="0.5" style="stop-color:#662D91"/>
	<stop  offset="0.6733" style="stop-color:#642C8E"/>
	<stop  offset="0.7998" style="stop-color:#5C2A85"/>
	<stop  offset="0.911" style="stop-color:#4E2675"/>
	<stop  offset="1" style="stop-color:#3E2262"/>
</linearGradient>
<path class="st0" d="M81.3,1036.2c0,0,8.1,4.1,46.9-5c8.7-2,14.4-3.3,19.8-2.5c0,0,4.8,5-5.9,9.6c-10.7,4.6-25.7,15.6-25.7,15.6
	s-21.6,5.5-23.7,5.4c-2-0.2-10.9,0.9-15.8-7C72,1044.4,81.3,1036.2,81.3,1036.2z"/>
<linearGradient id="SVGID_2_" gradientUnits="userSpaceOnUse" x1="-207.1702" y1="-170.3102" x2="-131.64" y2="-170.3102" gradientTransform="matrix(0.9487 -0.316 -0.316 -0.9487 219.3864 825.4014)">
	<stop  offset="0" style="stop-color:#17224D"/>
	<stop  offset="0.1136" style="stop-color:#32235C;stop-opacity:0.8864"/>
	<stop  offset="0.2834" style="stop-color:#55256E;stop-opacity:0.7166"/>
	<stop  offset="0.4564" style="stop-color:#70267D;stop-opacity:0.5436"/>
	<stop  offset="0.6319" style="stop-color:#832687;stop-opacity:0.3681"/>
	<stop  offset="0.8111" style="stop-color:#8E278D;stop-opacity:0.1889"/>
	<stop  offset="1" style="stop-color:#92278F;stop-opacity:0"/>
</linearGradient>
<path class="st1" d="M81.3,1036.2c0,0,8.1,4.1,46.9-5c8.6-2,14.4-3.3,19.8-2.5c0,0,4.8,5-5.9,9.6c-10.7,4.6-25.7,15.6-25.7,15.6
	s-21.6,5.5-23.7,5.4c-2-0.2-10.9,0.9-15.8-7C72,1044.4,81.3,1036.2,81.3,1036.2z"/>
<linearGradient id="SVGID_3_" gradientUnits="userSpaceOnUse" x1="-207.0775" y1="-171.6231" x2="-144.4206" y2="-171.6231" gradientTransform="matrix(0.9487 -0.316 -0.316 -0.9487 219.3864 825.4014)">
	<stop  offset="0" style="stop-color:#92278F;stop-opacity:0"/>
	<stop  offset="0.1214" style="stop-color:#972D90;stop-opacity:0.1214"/>
	<stop  offset="0.429" style="stop-color:#9F3591;stop-opacity:0.429"/>
	<stop  offset="1" style="stop-color:#A13791"/>
</linearGradient>
<path class="st2" d="M105.5,1048.2c-23,5.8-22.3,0.4-22.3,0.4s-2.6-4.1-5.1-8.6c-2.1,3.1-3.9,7.8-1.1,12.3c4.9,7.9,13.8,6.8,15.8,7
	c2,0.2,23.7-5.4,23.7-5.4s12-8.8,22.2-14C130.3,1041.7,118.5,1044.9,105.5,1048.2z"/>
<linearGradient id="SVGID_4_" gradientUnits="userSpaceOnUse" x1="-213.9272" y1="-145.3677" x2="-113.2693" y2="-145.3677" gradientTransform="matrix(0.9487 -0.316 -0.316 -0.9487 219.3864 825.4014)">
	<stop  offset="0" style="stop-color:#1C75BC"/>
	<stop  offset="0.5" style="stop-color:#00AEEF"/>
	<stop  offset="1" style="stop-color:#4FD5DF"/>
</linearGradient>
<path class="st3" d="M145.1,964.7c0,0,18.6,21-18.3,48.4c-39.6,29.4-49.9,46.5-33.6,46.2c0,0-22.8,5.6-26.4-16.2
	c-2.1-12.9,6.4-20.6,16.9-29.3C83.7,1013.7,120.3,987.6,145.1,964.7z"/>
<linearGradient id="SVGID_5_" gradientUnits="userSpaceOnUse" x1="-177.0968" y1="-248.6292" x2="-177.0968" y2="-208.4497" gradientTransform="matrix(0.9487 -0.316 -0.316 -0.9487 219.3864 825.4014)">
	<stop  offset="0" style="stop-color:#DA1C5C"/>
	<stop  offset="0.5" style="stop-color:#9E1F63"/>
	<stop  offset="1" style="stop-color:#9E1F63"/>
</linearGradient>
<path class="st4" d="M125.7,1076.3c0,0-12.5,21.4,10.5,38.4c0.2,0.2,0.1,0.5-0.2,0.4c-3.7-1.2-9.5-3.8-14.3-6.4
	C107.4,1100.8,118.5,1084.2,125.7,1076.3z"/>
<linearGradient id="SVGID_6_" gradientUnits="userSpaceOnUse" x1="-176.8947" y1="-248.6292" x2="-176.8947" y2="-208.4497" gradientTransform="matrix(0.9487 -0.316 -0.316 -0.9487 219.3864 825.4014)">
	<stop  offset="0" style="stop-color:#DA1C5C"/>
	<stop  offset="0.9951" style="stop-color:#351840"/>
</linearGradient>
<path class="st5" d="M125.7,1076.3c0,0-12.5,21.4,10.5,38.4c0.2,0.2,0.1,0.5-0.2,0.4c-3.7-1.2-12.3-4.5-15.9-7.9
	C108.1,1096,118.5,1084.2,125.7,1076.3z"/>
<linearGradient id="SVGID_7_" gradientUnits="userSpaceOnUse" x1="-193.2743" y1="-203.9846" x2="-122.4076" y2="-203.9846" gradientTransform="matrix(0.9487 -0.316 -0.316 -0.9487 219.3864 825.4014)">
	<stop  offset="0" style="stop-color:#EE2A7B"/>
	<stop  offset="0.5" style="stop-color:#DA1C5C"/>
	<stop  offset="1" style="stop-color:#9E1F63"/>
</linearGradient>
<path class="st6" d="M161.5,1039.9c-0.8-10-14.5-11.3-14.5-11.3c8.2,4.5-17.1,9.9-35.6,30.6c-13.1,14.7-7.9,29.8-7.9,29.8l0,0
	c4.1,13.8,18.3,19.8,18.3,19.8C99.1,1076,162.9,1058.4,161.5,1039.9z"/>
<linearGradient id="SVGID_8_" gradientUnits="userSpaceOnUse" x1="-193.2427" y1="-203.8896" x2="-122.3053" y2="-203.8896" gradientTransform="matrix(0.9487 -0.316 -0.316 -0.9487 219.3864 825.4014)">
	<stop  offset="0" style="stop-color:#EE2A7B;stop-opacity:0"/>
	<stop  offset="0.1889" style="stop-color:#F13178;stop-opacity:0.3778"/>
	<stop  offset="0.5" style="stop-color:#F23477"/>
	<stop  offset="0.606" style="stop-color:#EE3376;stop-opacity:0.7881"/>
	<stop  offset="0.7168" style="stop-color:#E13073;stop-opacity:0.5664"/>
	<stop  offset="0.8299" style="stop-color:#CC2B6E;stop-opacity:0.3402"/>
	<stop  offset="0.9438" style="stop-color:#AF2367;stop-opacity:0.1123"/>
	<stop  offset="1" style="stop-color:#9E1F63;stop-opacity:0"/>
</linearGradient>
<path class="st7" d="M161.5,1039.9c-0.4-10.2-14.5-11.4-14.5-11.4c8.2,4.5-17.1,9.9-35.6,30.6c-13.1,14.7-7.9,29.8-7.9,29.8l0,0
	c4.1,13.8,18.3,19.8,18.3,19.8C99.1,1076,161.2,1059.1,161.5,1039.9z"/>
<linearGradient id="SVGID_9_" gradientUnits="userSpaceOnUse" x1="-213.8237" y1="-145.3361" x2="-114.5067" y2="-145.3361" gradientTransform="matrix(0.9487 -0.316 -0.316 -0.9487 219.3864 825.4014)">
	<stop  offset="0" style="stop-color:#D9E8BC"/>
	<stop  offset="1" style="stop-color:#4FD5DF"/>
</linearGradient>
<path class="st8" d="M105.7,1010.5c42.7-30.5,39.4-45.8,39.4-45.8c-21.9,20.9-61.3,49-61.3,49c-11,9.1-19,16.5-16.9,29.3
	c3.5,21.9,26.4,16.2,26.4,16.2C66.6,1064.3,61.7,1041.9,105.7,1010.5z"/>
<path class="st9" d="M145.1,964.7L145.1,964.7c0,0,3.3,15.3-39.3,45.8c-33.7,24.1-38.7,42.8-27.4,48c3.7,1.4,7.6,1.5,10.5,1.4
	c1.4-0.1,2.8-0.3,4.3-0.6c-16.3,0.3-6-16.8,33.6-46.2C163.7,985.7,145.1,964.7,145.1,964.7z"/>
<linearGradient id="SVGID_10_" gradientUnits="userSpaceOnUse" x1="-193.2427" y1="-203.8896" x2="-125.9918" y2="-203.8896" gradientTransform="matrix(0.9487 -0.316 -0.316 -0.9487 219.3864 825.4014)">
	<stop  offset="0" style="stop-color:#EE2A7B;stop-opacity:0"/>
	<stop  offset="0.1864" style="stop-color:#D92775;stop-opacity:0.1864"/>
	<stop  offset="0.524" style="stop-color:#B9236B;stop-opacity:0.524"/>
	<stop  offset="0.8073" style="stop-color:#A52065;stop-opacity:0.8073"/>
	<stop  offset="1" style="stop-color:#9E1F63"/>
</linearGradient>
<path class="st10" d="M151.5,1042.2c7.6-5.6,3.7-10.3,3.3-10.7c-3.9-2.6-7.8-3-7.8-3c8.2,4.5-17.1,9.9-35.6,30.6
	c-13.1,14.7-7.9,29.8-7.9,29.8l0,0c4.1,13.8,18.3,19.8,18.3,19.8C79.8,1084.2,143.3,1048.3,151.5,1042.2z"/>
<linearGradient id="SVGID_11_" gradientUnits="userSpaceOnUse" x1="-190.5548" y1="-203.8897" x2="-122.2821" y2="-203.8897" gradientTransform="matrix(0.9487 -0.316 -0.316 -0.9487 219.3864 825.4014)">
	<stop  offset="0" style="stop-color:#EE2A7B;stop-opacity:0"/>
	<stop  offset="4.750010e-002" style="stop-color:#F25797;stop-opacity:9.500021e-002"/>
	<stop  offset="0.1021" style="stop-color:#F583B2;stop-opacity:0.2041"/>
	<stop  offset="0.1591" style="stop-color:#F8A9CA;stop-opacity:0.3182"/>
	<stop  offset="0.2179" style="stop-color:#FBC9DD;stop-opacity:0.4358"/>
	<stop  offset="0.2791" style="stop-color:#FDE1EC;stop-opacity:0.5582"/>
	<stop  offset="0.3437" style="stop-color:#FEF2F7;stop-opacity:0.6873"/>
	<stop  offset="0.4138" style="stop-color:#FFFCFD;stop-opacity:0.8276"/>
	<stop  offset="0.5" style="stop-color:#FFFFFF"/>
	<stop  offset="0.5637" style="stop-color:#FDFBFC;stop-opacity:0.8726"/>
	<stop  offset="0.6304" style="stop-color:#F8EEF3;stop-opacity:0.7391"/>
	<stop  offset="0.6985" style="stop-color:#EFD9E5;stop-opacity:0.6029"/>
	<stop  offset="0.7676" style="stop-color:#E2BCD0;stop-opacity:0.4648"/>
	<stop  offset="0.8374" style="stop-color:#D296B6;stop-opacity:0.3252"/>
	<stop  offset="0.9078" style="stop-color:#BE6896;stop-opacity:0.1843"/>
	<stop  offset="0.9775" style="stop-color:#A63270;stop-opacity:4.495645e-002"/>
	<stop  offset="1" style="stop-color:#9E1F63;stop-opacity:0"/>
</linearGradient>
<path class="st11" d="M147,1028.5c0,0,3.9,0.4,7.8,3c0.4,0.4,4.3,5.1-3.3,10.7c-8.2,6.1-72.7,40.8-29.7,66.5
	c-22.7-32.7,39.4-49.7,39.7-68.9C161.1,1029.7,147,1028.5,147,1028.5z"/>
<g>
	<path class="st12" d="M-51.2,1057.6l-5-33.3l-0.3-2.2h-0.4v35.5h-7.2v-52.9h9.5l4.6,24.2l0.4,2.8h0.1l0.4-2.8l4.6-24.2h9.5v52.9
		h-7.2v-35.5h-0.4l-0.3,2.2l-5,33.3H-51.2z"/>
	<path class="st12" d="M-20.1,1021.6l0.2,0.5h0.1l0.2-0.5l3.9-16.9H-8l-8,30.4v22.5h-7.8v-22.5l-7.8-30.4h7.6L-20.1,1021.6z"/>
	<path class="st12" d="M7.8,1023.7v-8.1c0-1.4-0.3-2.4-1-3.3c-0.4-0.4-0.9-0.6-1.6-0.6c-1.4,0-2,1-2.3,1.9c-0.2,0.6-0.3,1.2-0.3,1.9
		v31.8c0,1.5,0.4,2.5,1.1,3.3c0.4,0.4,0.9,0.6,1.5,0.6c1.4,0,2-0.9,2.3-1.9c0.2-0.5,0.3-1.2,0.3-1.9v-9.6H4.7v-6.6h10.9v26.4H11
		l-1-2.5c-1.4,1.8-3.5,3.1-6,3.1s-4.2-0.6-5.5-1.8c-1.3-1.1-2.2-2.4-2.7-3.9c-0.6-1.7-0.9-3.6-0.9-5.8v-31.2c0.1-2.1,0.5-4,1.3-5.7
		c0.6-1.4,1.6-2.9,3-4s3.5-1.8,6-1.8s4.5,0.7,6,1.8s2.4,2.5,3.1,4c0.8,1.7,1.2,3.6,1.3,5.7v8.2H7.8L7.8,1023.7z"/>
	<path class="st12" d="M21.3,1004.7h17.8v8H29v13.9h7.2v8.5H29v14.5h10v8H21.3V1004.7z"/>
	<path class="st12" d="M43.4,1004.7h7.8v45.7h10.3v7.2H43.4V1004.7z"/>
</g>
<g>
	<path class="st12" d="M173.4,1060v-52.9h6.8c4.6,0,8.2,0.9,10.6,3.1s3.6,5.7,3.6,10.9c0,2.5-0.2,4.4-1,6.1s-2,3.2-3.8,4.8
		c1.9,1.1,3.4,3.1,4.5,6.5c0.6,1.7,0.9,3.8,0.9,6.5c0,4-0.7,7.5-2.5,10.2s-4.9,4.5-9.5,4.8H173.4L173.4,1060z M181.2,1028.9
		c0.6,0,2.2,0.1,3.5-0.8s2.3-2.6,2.3-6.3s-1-5.4-2.3-6.3s-2.8-0.8-3.5-0.8V1028.9z M181.2,1052.3c0.6,0,2.2,0.1,3.5-0.8
		c1.3-0.9,2.3-3,2.3-7.3c0-4.3-1-6.4-2.3-7.3s-2.8-0.8-3.5-0.8V1052.3z"/>
	<path class="st12" d="M199.6,1007.1h17.8v8h-10v13.9h7.2v8.5h-7.2v14.5h10v8h-17.8V1007.1z"/>
	<path class="st12" d="M235.6,1060l-4-22.3h-2.1v22.3h-7.8v-52.9h7.8c9.3,0,13.2,5.3,13.2,15.3c0,5.3-1.4,10-4.3,12l5,25.6
		C243.4,1060,235.6,1060,235.6,1060z M229.5,1030.5c1.1,0,2.5-0.1,3.7-1.2c1.2-1,2.1-3,2.1-6.7c0-3.7-0.9-5.8-2.1-6.8
		s-2.6-1.1-3.7-1.1V1030.5z"/>
	<path class="st12" d="M260.2,1026.1v-8.1c0-1.4-0.3-2.4-1-3.3c-0.4-0.4-0.9-0.6-1.6-0.6c-1.4,0-2,1-2.3,1.9
		c-0.2,0.6-0.3,1.2-0.3,1.9v31.8c0,1.5,0.4,2.5,1.1,3.3c0.4,0.4,0.9,0.6,1.5,0.6c1.4,0,2-0.9,2.3-1.9c0.2-0.5,0.3-1.2,0.3-1.9v-9.6
		h-3.1v-6.6H268v26.4h-4.6l-0.9-2.5c-1.4,1.8-3.5,3.1-6,3.1s-4.2-0.6-5.5-1.8c-1.3-1.1-2.2-2.4-2.7-3.9c-0.6-1.7-0.9-3.6-0.9-5.8
		v-31.2c0.1-2.1,0.5-4,1.3-5.7c0.6-1.4,1.6-2.9,3-4s3.5-1.8,6-1.8s4.5,0.7,6,1.8c1.4,1.1,2.4,2.5,3.1,4c0.8,1.7,1.2,3.6,1.3,5.7v8.1
		L260.2,1026.1L260.2,1026.1L260.2,1026.1z"/>
	<path class="st12" d="M286.5,1021.3c0-1.7-0.1-3.7-0.6-5.2c-0.5-1.4-1.3-2.4-2.5-2.4c-2,0.1-2.7,2.2-2.7,5.3c0,1.8,0.8,3.7,1.9,5.7
		c1.2,2,2.7,4.1,4.2,6.3c1.8,2.7,3.6,5.4,5,8.1c1.4,2.7,2.3,5.4,2.3,8.3c0,3.5-0.6,6.8-2.2,9.3s-4.3,4-8.6,4c-5,0-7.8-1.9-9.4-4.8
		c-1.6-2.9-1.9-6.7-1.9-10.7l7.6-0.7c0,2.2,0.1,4.5,0.6,6.1c0.5,1.7,1.4,2.9,3,2.9c2.3,0,3.2-2.4,3.2-5.8c0-1.7-0.9-3.7-2-5.8
		c-0.6-1-1.3-2.1-2-3.2c-1.5-2.2-3.2-4.6-4.9-7.3c-1.7-2.7-3-5.4-3.8-8.2c-0.4-1.4-0.6-2.8-0.6-4.2c0-2.9,0.6-6,2.3-8.4
		c1.7-2.3,4.2-4,7.8-4c4.7-0.1,7.4,1.9,8.9,4.7c1.5,2.9,1.9,6.4,1.9,9.4L286.5,1021.3z"/>
	<path class="st12" d="M295.6,1015.1v-8H318v8h-7.3v44.9h-7.8v-44.9H295.6z"/>
	<path class="st12" d="M335,1060l-4-22.3h-2.1v22.3h-7.8v-52.9h7.8c9.3,0,13.2,5.3,13.2,15.3c0,5.3-1.4,10-4.3,12l5,25.6
		C342.8,1060,335,1060,335,1060z M328.8,1030.5c1.1,0,2.5-0.1,3.7-1.2c1.2-1,2.1-3,2.1-6.7c0-3.7-0.9-5.8-2.1-6.8s-2.6-1.1-3.7-1.1
		V1030.5z"/>
	<path class="st12" d="M347.1,1007.1h17.8v8h-10v13.9h7.2v8.5h-7.2v14.5h10v8h-17.8V1007.1z"/>
	<path class="st12" d="M382,1021.3c0-1.7-0.1-3.7-0.6-5.2c-0.5-1.4-1.3-2.4-2.5-2.4c-2,0.1-2.7,2.2-2.7,5.3c0,1.8,0.8,3.7,1.9,5.7
		c1.2,2,2.7,4.1,4.2,6.3c1.8,2.7,3.6,5.4,5,8.1c1.4,2.7,2.3,5.4,2.3,8.3c0,3.5-0.6,6.8-2.2,9.3s-4.3,4-8.6,4c-5,0-7.8-1.9-9.4-4.8
		c-1.6-2.9-1.9-6.7-1.9-10.7l7.6-0.7c0,2.2,0.1,4.5,0.6,6.1c0.5,1.7,1.4,2.9,3,2.9c2.3,0,3.2-2.4,3.2-5.8c0-1.7-0.9-3.7-2-5.8
		c-0.6-1-1.3-2.1-2-3.2c-1.5-2.2-3.2-4.6-4.9-7.3c-1.7-2.7-3-5.4-3.8-8.2c-0.4-1.4-0.6-2.8-0.6-4.2c0-2.9,0.6-6,2.3-8.4
		c1.7-2.3,4.2-4,7.8-4c4.7-0.1,7.4,1.9,8.9,4.7c1.5,2.9,1.9,6.4,1.9,9.4L382,1021.3z"/>
	<path class="st12" d="M406.7,1021.3c0-1.7-0.1-3.7-0.6-5.2c-0.5-1.4-1.3-2.4-2.5-2.4c-2,0.1-2.7,2.2-2.7,5.3c0,1.8,0.8,3.7,1.9,5.7
		c1.2,2,2.7,4.1,4.2,6.3c1.8,2.7,3.6,5.4,5,8.1c1.4,2.7,2.3,5.4,2.3,8.3c0,3.5-0.6,6.8-2.2,9.3s-4.3,4-8.6,4c-5,0-7.8-1.9-9.4-4.8
		c-1.6-2.9-1.9-6.7-1.9-10.7l7.6-0.7c0,2.2,0.1,4.5,0.6,6.1c0.5,1.7,1.4,2.9,3,2.9c2.3,0,3.2-2.4,3.2-5.8c0-1.7-0.9-3.7-2-5.8
		c-0.6-1-1.3-2.1-2-3.2c-1.5-2.2-3.2-4.6-4.9-7.3c-1.7-2.7-3-5.4-3.8-8.2c-0.4-1.4-0.6-2.8-0.6-4.2c0-2.9,0.6-6,2.3-8.4
		c1.7-2.3,4.2-4,7.8-4c4.7-0.1,7.4,1.9,8.9,4.7c1.5,2.9,1.9,6.4,1.9,9.4L406.7,1021.3z"/>
	<path class="st12" d="M418.5,1007.1h17.8v8h-10v13.9h7.2v8.5h-7.2v14.5h10v8h-17.8V1007.1z"/>
	<path class="st12" d="M454.5,1060l-4-22.3h-2.1v22.3h-7.8v-52.9h7.8c9.3,0,13.2,5.3,13.2,15.3c0,5.3-1.4,10-4.3,12l5,25.6
		C462.3,1060,454.5,1060,454.5,1060z M448.4,1030.5c1.1,0,2.5-0.1,3.7-1.2c1.2-1,2.1-3,2.1-6.7c0-3.7-0.9-5.8-2.1-6.8
		s-2.6-1.1-3.7-1.1V1030.5z"/>
</g>
<path class="st12" d="M488.2,1010.8h-5.4l-1.5,6.9h3.6l-0.8,4h-3.6l-2.4,11.5h-3.9l5.6-26.5h9.3L488.2,1010.8z"/>
<path class="st12" d="M492,1033.2l0.3-11.2h-1l-2.3,11.2h-4l5.6-26.5h3.9c4.6,0,6,2.6,5,7.6c-0.6,2.6-1.8,5-3.5,6l-0.2,12.8
	L492,1033.2L492,1033.2z M492,1018.5c0.5,0,1.3,0,1.9-0.6c0.7-0.5,1.4-1.5,1.8-3.3c0.4-1.9,0.1-2.8-0.3-3.4
	c-0.5-0.5-1.2-0.5-1.7-0.5L492,1018.5z"/>
<path class="st12" d="M509.3,1027.8c-0.3,1.1-0.7,2.1-1.3,2.9c-0.5,0.7-1.2,1.4-2,1.9c-0.9,0.6-1.9,0.9-3.2,0.9s-2.2-0.3-2.8-0.9
	c-0.6-0.5-0.9-1.2-1.1-1.9c-0.3-0.8-0.3-1.8,0-2.9l3.3-15.6c0.3-1,0.6-2,1.2-2.8c0.5-0.7,1.1-1.4,1.9-2c0.8-0.5,1.9-0.9,3.2-0.9
	s2.2,0.4,2.8,0.9s1,1.3,1.1,2c0.3,0.8,0.3,1.7,0.1,2.8L509.3,1027.8z M508.7,1012.2c0.1-0.7,0.1-1.3-0.2-1.7
	c-0.1-0.2-0.4-0.3-0.7-0.3c-0.7,0-1.1,0.5-1.4,1c-0.1,0.3-0.3,0.6-0.3,1l-3.3,15.6c-0.2,0.7-0.1,1.3,0.2,1.7
	c0.1,0.2,0.4,0.3,0.7,0.3c0.7,0,1.1-0.4,1.4-1c0.1-0.2,0.3-0.5,0.4-1L508.7,1012.2z"/>
<path class="st12" d="M517.8,1019.4l-0.1-1.2h-0.2l-3.2,15h-3.6l5.6-26.5h3.5l0.8,13.8l0.1,1.2h0.2l3.2-15h3.6l-5.6,26.5h-3.5
	L517.8,1019.4z"/>
<path class="st12" d="M528.4,1010.8l0.9-4h11.2l-0.9,4h-3.7l-4.8,22.5h-3.9l4.8-22.5H528.4z"/>
<path class="st12" d="M538.6,1021.8h5.2l-0.7,3.4h-5.2L538.6,1021.8z"/>
<path class="st12" d="M549.8,1006.8h8.9l-0.9,4h-5l-1.5,6.9h3.6l-0.9,4.2h-3.6l-1.5,7.3h5l-0.8,4h-8.9L549.8,1006.8z"/>
<path class="st12" d="M562.2,1019.4l-0.1-1.2h-0.2l-3.2,15h-3.6l5.6-26.5h3.5l0.8,13.8l0.1,1.2h0.2l3.2-15h3.6l-5.6,26.5H563
	L562.2,1019.4z"/>
<path class="st12" d="M569.4,1033.2l5.6-26.5h3.1c3.6,0,5.3,0.7,6,2.7c0.6,2,0,5.3-1.1,10.5s-1.9,8.5-3.4,10.5s-3.6,2.7-7.2,2.7
	L569.4,1033.2L569.4,1033.2L569.4,1033.2z M574.1,1029.3c1.3,0,2.1-0.1,2.8-1.4c0.6-1.2,1.1-3.3,1.5-5c0.2-0.8,0.4-1.8,0.6-2.9
	c0.2-1.1,0.4-2.1,0.6-2.9c0.4-1.7,0.8-3.7,0.6-5c-0.1-1.3-0.8-1.4-2.2-1.4L574.1,1029.3z"/>
<path class="st12" d="M474.2,1062.2v-26.4h3.1c3.6,0,5.5,0.7,6.6,2.7c1,2,1.2,5.3,1.2,10.5c0,5.2-0.1,8.5-1.2,10.5
	c-1,2-3,2.7-6.6,2.7C477.3,1062.2,474.2,1062.2,474.2,1062.2z M478.1,1058.3c1.3,0,2.1-0.1,2.5-1.4c0.2-0.6,0.3-1.5,0.4-2.8
	c0-1.3,0-3,0-5.1c0-2.2,0-3.9,0-5.1s-0.2-2.2-0.4-2.8c-0.4-1.3-1.2-1.4-2.5-1.4V1058.3z"/>
<path class="st12" d="M487.6,1035.8h8.9v4h-5v6.9h3.6v4.2h-3.6v7.3h5v4h-8.9V1035.8z"/>
<path class="st12" d="M505.7,1035.8h3.8l-4,26.5h-3.9l-4-26.5h3.8l1.9,14.5l0.1,1.1h0.2l0.1-1.1L505.7,1035.8z"/>
<path class="st12" d="M511.2,1035.8h8.9v4h-5v6.9h3.6v4.2h-3.6v7.3h5v4h-8.9V1035.8z"/>
<path class="st12" d="M522.3,1035.8h3.9v22.9h5.1v3.6h-9V1035.8z"/>
<path class="st12" d="M543,1056.8c0,1.1-0.3,2.1-0.6,2.9c-0.3,0.7-0.8,1.4-1.5,1.9c-0.7,0.6-1.7,0.9-3,0.9s-2.3-0.3-3-0.9
	c-0.7-0.5-1.2-1.2-1.5-1.9c-0.4-0.8-0.6-1.8-0.6-2.9v-15.6c0-1,0.3-2,0.6-2.8c0.3-0.7,0.8-1.4,1.5-2s1.7-0.9,3-0.9s2.3,0.4,3,0.9
	s1.2,1.3,1.5,2c0.4,0.8,0.6,1.8,0.6,2.8V1056.8z M539.1,1041.2c0-0.7-0.1-1.2-0.5-1.7c-0.2-0.2-0.5-0.3-0.8-0.3c-0.7,0-1,0.5-1.2,1
	c-0.1,0.3-0.1,0.6-0.1,1v15.6c0,0.8,0.2,1.3,0.5,1.7c0.2,0.2,0.4,0.3,0.8,0.3c0.7,0,1-0.4,1.2-1c0.1-0.3,0.1-0.6,0.1-1V1041.2z"/>
<path class="st12" d="M545.6,1035.8h3.9c1.7,0,3.4,0.4,4.7,1.7c1.3,1.2,2.2,3.2,2.2,6.3c0,3-0.9,5-2.2,6.2s-3,1.7-4.7,1.7v10.6h-3.9
	V1035.8z M549.5,1047.7c1.2,0,1.9-0.2,2.4-0.8c0.4-0.6,0.5-1.5,0.5-3s-0.1-2.5-0.5-3.2c-0.4-0.6-1.2-0.9-2.4-0.9V1047.7z"/>
<path class="st12" d="M558.3,1035.8h8.9v4h-5v6.9h3.6v4.2h-3.6v7.3h5v4h-8.9V1035.8z"/>
<path class="st12" d="M576.3,1062.2l-2-11.2h-1v11.2h-3.9v-26.4h3.9c4.6,0,6.6,2.6,6.6,7.6c0,2.6-0.7,5-2.2,6l2.5,12.8H576.3
	L576.3,1062.2z M573.2,1047.5c0.5,0,1.3-0.1,1.8-0.6s1-1.5,1-3.3c0-1.8-0.5-2.9-1-3.4s-1.3-0.5-1.8-0.5V1047.5z"/>
</svg>
