<?xml version="1.0" encoding="utf-8"?>
<!-- Generator: Adobe Illustrator 19.0.0, SVG Export Plug-In . SVG Version: 6.00 Build 0)  -->
<svg version="1.1" id="Layer_1" xmlns="http://www.w3.org/2000/svg" xmlns:xlink="http://www.w3.org/1999/xlink" x="0px" y="0px"
	 viewBox="0 0 399.6 150.4" style="enable-background:new 0 0 399.6 150.4;" xml:space="preserve">
<style type="text/css">
	.st0{fill:url(#SVGID_1_);}
	.st1{fill:url(#SVGID_2_);}
	.st2{opacity:0.43;fill:url(#SVGID_3_);enable-background:new    ;}
	.st3{fill:url(#SVGID_4_);}
	.st4{fill:url(#SVGID_5_);}
	.st5{fill:url(#SVGID_6_);}
	.st6{fill:url(#SVGID_7_);}
	.st7{fill:url(#SVGID_8_);}
	.st8{fill:url(#SVGID_9_);}
	.st9{opacity:0.25;fill:#13A64A;enable-background:new    ;}
	.st10{fill:url(#SVGID_10_);}
	.st11{opacity:0.17;fill:url(#SVGID_11_);enable-background:new    ;}
	.st12{fill:#FFFFFF;}
</style>
<linearGradient id="SVGID_1_" gradientUnits="userSpaceOnUse" x1="-64.1303" y1="-8.4186" x2="11.4" y2="-8.4186" gradientTransform="matrix(0.9487 -0.316 0.316 0.9487 73.6836 75.4621)">
	<stop  offset="0" style="stop-color:#282561"/>
	<stop  offset="0.5" style="stop-color:#673090"/>
	<stop  offset="0.6733" style="stop-color:#652F8D"/>
	<stop  offset="0.7998" style="stop-color:#5D2D85"/>
	<stop  offset="0.911" style="stop-color:#4F2B75"/>
	<stop  offset="1" style="stop-color:#3E2563"/>
</linearGradient>
<path class="st0" d="M14.8,71.5c0,0,8.1,4.1,46.9-5c8.7-2,14.4-3.3,19.8-2.5c0,0,4.8,5-5.9,9.6S49.9,89.2,49.9,89.2
	s-21.6,5.5-23.7,5.4c-2-0.2-10.9,0.9-15.8-7C5.5,79.7,14.8,71.5,14.8,71.5z"/>
<linearGradient id="SVGID_2_" gradientUnits="userSpaceOnUse" x1="-64.1303" y1="-8.4186" x2="11.4" y2="-8.4186" gradientTransform="matrix(0.9487 -0.316 0.316 0.9487 73.6836 75.4621)">
	<stop  offset="0" style="stop-color:#19234D"/>
	<stop  offset="0.1136" style="stop-color:#32245C;stop-opacity:0.8864"/>
	<stop  offset="0.2834" style="stop-color:#56286E;stop-opacity:0.7166"/>
	<stop  offset="0.4564" style="stop-color:#702A7D;stop-opacity:0.5436"/>
	<stop  offset="0.6319" style="stop-color:#832886;stop-opacity:0.3681"/>
	<stop  offset="0.8111" style="stop-color:#8E298C;stop-opacity:0.1889"/>
	<stop  offset="1" style="stop-color:#922A8E;stop-opacity:0"/>
</linearGradient>
<path class="st1" d="M14.8,71.5c0,0,8.1,4.1,46.9-5c8.6-2,14.4-3.3,19.8-2.5c0,0,4.8,5-5.9,9.6S49.9,89.2,49.9,89.2
	s-21.6,5.5-23.7,5.4c-2-0.2-10.9,0.9-15.8-7C5.5,79.7,14.8,71.5,14.8,71.5z"/>
<linearGradient id="SVGID_3_" gradientUnits="userSpaceOnUse" x1="-64.0376" y1="-7.1057" x2="-1.3807" y2="-7.1057" gradientTransform="matrix(0.9487 -0.316 0.316 0.9487 73.6836 75.4621)">
	<stop  offset="0" style="stop-color:#922A8E;stop-opacity:0"/>
	<stop  offset="0.1214" style="stop-color:#982E91;stop-opacity:0.1214"/>
	<stop  offset="0.429" style="stop-color:#A03792;stop-opacity:0.429"/>
	<stop  offset="1" style="stop-color:#A23991"/>
</linearGradient>
<path class="st2" d="M39,83.5c-23,5.8-22.3,0.4-22.3,0.4s-2.6-4.1-5.1-8.6c-2.1,3.1-3.9,7.8-1.1,12.3c4.9,7.9,13.8,6.8,15.8,7
	S50,89.2,50,89.2s12-8.8,22.2-14C63.8,77,52,80.2,39,83.5z"/>
<linearGradient id="SVGID_4_" gradientUnits="userSpaceOnUse" x1="-70.8872" y1="-33.3611" x2="29.7707" y2="-33.3611" gradientTransform="matrix(0.9487 -0.316 0.316 0.9487 73.6836 75.4621)">
	<stop  offset="0" style="stop-color:#2075BC"/>
	<stop  offset="0.5" style="stop-color:#2BACE2"/>
	<stop  offset="1" style="stop-color:#62C8D5"/>
</linearGradient>
<path class="st3" d="M78.6,0c0,0,18.6,21-18.3,48.4C20.7,77.8,10.4,94.9,26.7,94.6c0,0-22.8,5.6-26.4-16.2
	c-2.1-12.9,6.4-20.6,16.9-29.3C17.2,49,53.8,22.9,78.6,0z"/>
<linearGradient id="SVGID_5_" gradientUnits="userSpaceOnUse" x1="-34.0568" y1="69.9192" x2="-34.0568" y2="29.7397" gradientTransform="matrix(0.9487 -0.316 0.316 0.9487 73.6836 75.4621)">
	<stop  offset="0" style="stop-color:#D91F5D"/>
	<stop  offset="0.5" style="stop-color:#9E2064"/>
	<stop  offset="1" style="stop-color:#9E2064"/>
</linearGradient>
<path class="st4" d="M59.2,111.6c0,0-12.5,21.4,10.5,38.4c0.2,0.2,0.1,0.5-0.2,0.4c-3.7-1.2-9.5-3.8-14.3-6.4
	C40.9,136.1,52,119.5,59.2,111.6z"/>
<linearGradient id="SVGID_6_" gradientUnits="userSpaceOnUse" x1="-33.8547" y1="69.9192" x2="-33.8547" y2="29.7397" gradientTransform="matrix(0.9487 -0.316 0.316 0.9487 73.6836 75.4621)">
	<stop  offset="0" style="stop-color:#D91F5D"/>
	<stop  offset="0.9951" style="stop-color:#351840"/>
</linearGradient>
<path class="st5" d="M59.2,111.6c0,0-12.5,21.4,10.5,38.4c0.2,0.2,0.1,0.5-0.2,0.4c-3.7-1.2-12.3-4.5-15.9-7.9
	C41.6,131.3,52,119.5,59.2,111.6z"/>
<linearGradient id="SVGID_7_" gradientUnits="userSpaceOnUse" x1="-50.2343" y1="25.2557" x2="20.6323" y2="25.2557" gradientTransform="matrix(0.9487 -0.316 0.316 0.9487 73.6836 75.4621)">
	<stop  offset="0" style="stop-color:#EE2E7C"/>
	<stop  offset="0.5" style="stop-color:#D91F5D"/>
	<stop  offset="1" style="stop-color:#9E2064"/>
</linearGradient>
<path class="st6" d="M95,75.2c-0.8-10-14.5-11.3-14.5-11.3c8.2,4.5-17.1,9.9-35.6,30.6c-13.1,14.7-7.9,29.8-7.9,29.8l0,0
	c4.1,13.8,18.3,19.8,18.3,19.8C32.6,111.3,96.4,93.7,95,75.2z"/>
<linearGradient id="SVGID_8_" gradientUnits="userSpaceOnUse" x1="-50.2027" y1="25.1608" x2="20.7346" y2="25.1608" gradientTransform="matrix(0.9487 -0.316 0.316 0.9487 73.6836 75.4621)">
	<stop  offset="0" style="stop-color:#EE2E7C;stop-opacity:0"/>
	<stop  offset="0.1889" style="stop-color:#EE3579;stop-opacity:0.3778"/>
	<stop  offset="0.5" style="stop-color:#EE3878"/>
	<stop  offset="0.606" style="stop-color:#EE3576;stop-opacity:0.7881"/>
	<stop  offset="0.7168" style="stop-color:#E13174;stop-opacity:0.5664"/>
	<stop  offset="0.8299" style="stop-color:#CD2C6F;stop-opacity:0.3402"/>
	<stop  offset="0.9438" style="stop-color:#AF2467;stop-opacity:0.1123"/>
	<stop  offset="1" style="stop-color:#9E2064;stop-opacity:0"/>
</linearGradient>
<path class="st7" d="M95,75.2C94.6,65,80.5,63.8,80.5,63.8c8.2,4.5-17.1,9.9-35.6,30.6c-13.1,14.7-7.9,29.8-7.9,29.8l0,0
	C41.1,138,55.3,144,55.3,144C32.6,111.3,94.7,94.4,95,75.2z"/>
<linearGradient id="SVGID_9_" gradientUnits="userSpaceOnUse" x1="-70.7838" y1="-33.3927" x2="28.5332" y2="-33.3927" gradientTransform="matrix(0.9487 -0.316 0.316 0.9487 73.6836 75.4621)">
	<stop  offset="0" style="stop-color:#D9E7BC"/>
	<stop  offset="1" style="stop-color:#62C8D5"/>
</linearGradient>
<path class="st8" d="M39.2,45.8C81.9,15.3,78.6,0,78.6,0C56.7,20.9,17.3,49,17.3,49c-11,9.1-19,16.5-16.9,29.3
	c3.5,21.9,26.4,16.2,26.4,16.2C0.1,99.6-4.8,77.2,39.2,45.8z"/>
<path class="st9" d="M78.6,0L78.6,0c0,0,3.3,15.3-39.3,45.8C5.6,69.9,0.6,88.6,11.9,93.8c3.7,1.4,7.6,1.5,10.5,1.4
	c1.4-0.1,2.8-0.3,4.3-0.6c-16.3,0.3-6-16.8,33.6-46.2C97.2,21,78.6,0,78.6,0z"/>
<linearGradient id="SVGID_10_" gradientUnits="userSpaceOnUse" x1="-50.2027" y1="25.1608" x2="17.0482" y2="25.1608" gradientTransform="matrix(0.9487 -0.316 0.316 0.9487 73.6836 75.4621)">
	<stop  offset="0" style="stop-color:#EE2E7C;stop-opacity:0"/>
	<stop  offset="0.1864" style="stop-color:#D92776;stop-opacity:0.1864"/>
	<stop  offset="0.524" style="stop-color:#B9256B;stop-opacity:0.524"/>
	<stop  offset="0.8073" style="stop-color:#A52065;stop-opacity:0.8073"/>
	<stop  offset="1" style="stop-color:#9E2064"/>
</linearGradient>
<path class="st10" d="M85,77.5c7.6-5.6,3.7-10.3,3.3-10.7c-3.9-2.6-7.8-3-7.8-3c8.2,4.5-17.1,9.9-35.6,30.6
	c-13.1,14.7-7.9,29.8-7.9,29.8l0,0C41.1,138,55.3,144,55.3,144C13.3,119.5,76.8,83.6,85,77.5z"/>
<linearGradient id="SVGID_11_" gradientUnits="userSpaceOnUse" x1="-47.5148" y1="25.1609" x2="20.7578" y2="25.1609" gradientTransform="matrix(0.9487 -0.316 0.316 0.9487 73.6836 75.4621)">
	<stop  offset="0" style="stop-color:#EE2E7C;stop-opacity:0"/>
	<stop  offset="4.750010e-002" style="stop-color:#EF5897;stop-opacity:9.500021e-002"/>
	<stop  offset="0.1021" style="stop-color:#F283B1;stop-opacity:0.2041"/>
	<stop  offset="0.1591" style="stop-color:#F6A9C9;stop-opacity:0.3182"/>
	<stop  offset="0.2179" style="stop-color:#F9CADD;stop-opacity:0.4358"/>
	<stop  offset="0.2791" style="stop-color:#FCE1EB;stop-opacity:0.5582"/>
	<stop  offset="0.3437" style="stop-color:#FEF2F7;stop-opacity:0.6873"/>
	<stop  offset="0.4138" style="stop-color:#FFFCFD;stop-opacity:0.8276"/>
	<stop  offset="0.5" style="stop-color:#FFFFFF"/>
	<stop  offset="0.5637" style="stop-color:#FDFBFD;stop-opacity:0.8726"/>
	<stop  offset="0.6304" style="stop-color:#F7EEF3;stop-opacity:0.7391"/>
	<stop  offset="0.6985" style="stop-color:#EFD9E4;stop-opacity:0.6029"/>
	<stop  offset="0.7676" style="stop-color:#E2BCD0;stop-opacity:0.4648"/>
	<stop  offset="0.8374" style="stop-color:#D296B6;stop-opacity:0.3252"/>
	<stop  offset="0.9078" style="stop-color:#BF6997;stop-opacity:0.1843"/>
	<stop  offset="0.9775" style="stop-color:#A73371;stop-opacity:4.495645e-002"/>
	<stop  offset="1" style="stop-color:#9E2064;stop-opacity:0"/>
</linearGradient>
<path class="st11" d="M80.5,63.8c0,0,3.9,0.4,7.8,3c0.4,0.4,4.3,5.1-3.3,10.7c-8.2,6.1-72.7,40.8-29.7,66.5
	C32.6,111.3,94.7,94.3,95,75.1C94.6,65,80.5,63.8,80.5,63.8z"/>
<g>
	<path class="st12" d="M123.6,68.6l-5-33.3l-0.3-2.2h-0.4v35.5h-7.2V15.7h9.5l4.6,24.2l0.4,2.8h0.1l0.4-2.8l4.6-24.2h9.5v52.9h-7.2
		V33.1h-0.4l-0.3,2.2l-5,33.3H123.6z"/>
	<path class="st12" d="M154.7,32.6l0.2,0.5h0.1l0.2-0.5l3.9-16.9h7.7l-8,30.4v22.5H151V46.1l-7.8-30.4h7.6L154.7,32.6z"/>
	<path class="st12" d="M182.6,34.7v-8.1c0-1.4-0.3-2.4-1-3.3c-0.4-0.4-0.9-0.6-1.6-0.6c-1.4,0-2,1-2.3,1.9c-0.2,0.6-0.3,1.2-0.3,1.9
		v31.8c0,1.5,0.4,2.5,1.1,3.3c0.4,0.4,0.9,0.6,1.5,0.6c1.4,0,2-0.9,2.3-1.9c0.2-0.5,0.3-1.2,0.3-1.9v-9.6h-3.1v-6.6h10.9v26.4h-4.6
		l-1-2.5c-1.4,1.8-3.5,3.1-6,3.1s-4.2-0.6-5.5-1.8c-1.3-1.1-2.2-2.4-2.7-3.9c-0.6-1.7-0.9-3.6-0.9-5.8V26.5c0.1-2.1,0.5-4,1.3-5.7
		c0.6-1.4,1.6-2.9,3-4s3.5-1.8,6-1.8s4.5,0.7,6,1.8s2.4,2.5,3.1,4c0.8,1.7,1.2,3.6,1.3,5.7v8.2L182.6,34.7L182.6,34.7z"/>
	<path class="st12" d="M196.1,15.7h17.8v8h-10.1v13.9h7.2v8.5h-7.2v14.5h10v8h-17.7V15.7z"/>
	<path class="st12" d="M218.2,15.7h7.8v45.7h10.3v7.2h-18.1L218.2,15.7L218.2,15.7z"/>
</g>
<g>
	<path class="st12" d="M110.7,129.4V76.5h6.8c4.6,0,8.2,0.9,10.6,3.1s3.6,5.7,3.6,10.9c0,2.5-0.2,4.4-1,6.1s-2,3.2-3.8,4.8
		c1.9,1.1,3.4,3.1,4.5,6.5c0.6,1.7,0.9,3.8,0.9,6.5c0,4-0.7,7.5-2.5,10.2s-4.9,4.5-9.5,4.8L110.7,129.4L110.7,129.4z M118.5,98.3
		c0.6,0,2.2,0.1,3.5-0.8c1.3-0.9,2.3-2.6,2.3-6.3s-1-5.4-2.3-6.3c-1.3-0.9-2.8-0.8-3.5-0.8V98.3z M118.5,121.7
		c0.6,0,2.2,0.1,3.5-0.8c1.3-0.9,2.3-3,2.3-7.3s-1-6.4-2.3-7.3c-1.3-0.9-2.8-0.8-3.5-0.8V121.7z"/>
	<path class="st12" d="M136.9,76.5h17.8v8h-10v13.9h7.2v8.5h-7.2v14.5h10v8h-17.8V76.5z"/>
	<path class="st12" d="M172.9,129.4l-4-22.3h-2.1v22.3H159V76.5h7.8c9.3,0,13.2,5.3,13.2,15.3c0,5.3-1.4,10-4.3,12l5,25.6
		C180.7,129.4,172.9,129.4,172.9,129.4z M166.8,99.9c1.1,0,2.5-0.1,3.7-1.2c1.2-1,2.1-3,2.1-6.7s-0.9-5.8-2.1-6.8s-2.6-1.1-3.7-1.1
		V99.9z"/>
	<path class="st12" d="M197.5,95.5v-8.1c0-1.4-0.3-2.4-1-3.3c-0.4-0.4-0.9-0.6-1.6-0.6c-1.4,0-2,1-2.3,1.9c-0.2,0.6-0.3,1.2-0.3,1.9
		v31.8c0,1.5,0.4,2.5,1.1,3.3c0.4,0.4,0.9,0.6,1.5,0.6c1.4,0,2-0.9,2.3-1.9c0.2-0.5,0.3-1.2,0.3-1.9v-9.6h-3.1V103h10.9v26.4h-4.6
		l-0.9-2.5c-1.4,1.8-3.5,3.1-6,3.1s-4.2-0.6-5.5-1.8c-1.3-1.1-2.2-2.4-2.7-3.9c-0.6-1.7-0.9-3.6-0.9-5.8V87.3c0.1-2.1,0.5-4,1.3-5.7
		c0.6-1.4,1.6-2.9,3-4s3.5-1.8,6-1.8s4.5,0.7,6,1.8c1.4,1.1,2.4,2.5,3.1,4c0.8,1.7,1.2,3.6,1.3,5.7v8.1L197.5,95.5L197.5,95.5
		L197.5,95.5z"/>
	<path class="st12" d="M223.8,90.7c0-1.7-0.1-3.7-0.6-5.2c-0.5-1.4-1.3-2.4-2.5-2.4c-2,0.1-2.7,2.2-2.7,5.3c0,1.8,0.8,3.7,1.9,5.7
		c1.2,2,2.7,4.1,4.2,6.3c1.8,2.7,3.6,5.4,5,8.1c1.4,2.7,2.3,5.4,2.3,8.3c0,3.5-0.6,6.8-2.2,9.3s-4.3,4-8.6,4c-5,0-7.8-1.9-9.4-4.8
		c-1.6-2.9-1.9-6.7-1.9-10.7l7.6-0.7c0,2.2,0.1,4.5,0.6,6.1c0.5,1.7,1.4,2.9,3,2.9c2.3,0,3.2-2.4,3.2-5.8c0-1.7-0.9-3.7-2-5.8
		c-0.6-1-1.3-2.1-2-3.2c-1.5-2.2-3.2-4.6-4.9-7.3s-3-5.4-3.8-8.2c-0.4-1.4-0.6-2.8-0.6-4.2c0-2.9,0.6-6,2.3-8.4c1.7-2.3,4.2-4,7.8-4
		c4.7-0.1,7.4,1.9,8.9,4.7c1.5,2.9,1.9,6.4,1.9,9.4L223.8,90.7z"/>
	<path class="st12" d="M232.9,84.5v-8h22.4v8H248v44.9h-7.8V84.5H232.9z"/>
	<path class="st12" d="M272.3,129.4l-4-22.3h-2.1v22.3h-7.8V76.5h7.8c9.3,0,13.2,5.3,13.2,15.3c0,5.3-1.4,10-4.3,12l5,25.6
		C280.1,129.4,272.3,129.4,272.3,129.4z M266.1,99.9c1.1,0,2.5-0.1,3.7-1.2c1.2-1,2.1-3,2.1-6.7s-0.9-5.8-2.1-6.8s-2.6-1.1-3.7-1.1
		V99.9z"/>
	<path class="st12" d="M284.4,76.5h17.8v8h-10v13.9h7.2v8.5h-7.2v14.5h10v8h-17.8V76.5z"/>
	<path class="st12" d="M319.3,90.7c0-1.7-0.1-3.7-0.6-5.2c-0.5-1.4-1.3-2.4-2.5-2.4c-2,0.1-2.7,2.2-2.7,5.3c0,1.8,0.8,3.7,1.9,5.7
		c1.2,2,2.7,4.1,4.2,6.3c1.8,2.7,3.6,5.4,5,8.1c1.4,2.7,2.3,5.4,2.3,8.3c0,3.5-0.6,6.8-2.2,9.3s-4.3,4-8.6,4c-5,0-7.8-1.9-9.4-4.8
		c-1.6-2.9-1.9-6.7-1.9-10.7l7.6-0.7c0,2.2,0.1,4.5,0.6,6.1c0.5,1.7,1.4,2.9,3,2.9c2.3,0,3.2-2.4,3.2-5.8c0-1.7-0.9-3.7-2-5.8
		c-0.6-1-1.3-2.1-2-3.2c-1.5-2.2-3.2-4.6-4.9-7.3c-1.7-2.7-3-5.4-3.8-8.2c-0.4-1.4-0.6-2.8-0.6-4.2c0-2.9,0.6-6,2.3-8.4
		c1.7-2.3,4.2-4,7.8-4c4.7-0.1,7.4,1.9,8.9,4.7c1.5,2.9,1.9,6.4,1.9,9.4L319.3,90.7z"/>
	<path class="st12" d="M344,90.7c0-1.7-0.1-3.7-0.6-5.2c-0.5-1.4-1.3-2.4-2.5-2.4c-2,0.1-2.7,2.2-2.7,5.3c0,1.8,0.8,3.7,1.9,5.7
		c1.2,2,2.7,4.1,4.2,6.3c1.8,2.7,3.6,5.4,5,8.1c1.4,2.7,2.3,5.4,2.3,8.3c0,3.5-0.6,6.8-2.2,9.3s-4.3,4-8.6,4c-5,0-7.8-1.9-9.4-4.8
		c-1.6-2.9-1.9-6.7-1.9-10.7l7.6-0.7c0,2.2,0.1,4.5,0.6,6.1c0.5,1.7,1.4,2.9,3,2.9c2.3,0,3.2-2.4,3.2-5.8c0-1.7-0.9-3.7-2-5.8
		c-0.6-1-1.3-2.1-2-3.2c-1.5-2.2-3.2-4.6-4.9-7.3c-1.7-2.7-3-5.4-3.8-8.2c-0.4-1.4-0.6-2.8-0.6-4.2c0-2.9,0.6-6,2.3-8.4
		c1.7-2.3,4.2-4,7.8-4c4.7-0.1,7.4,1.9,8.9,4.7c1.5,2.9,1.9,6.4,1.9,9.4L344,90.7z"/>
	<path class="st12" d="M355.8,76.5h17.8v8h-10v13.9h7.2v8.5h-7.2v14.5h10v8h-17.8V76.5z"/>
	<path class="st12" d="M391.8,129.4l-4-22.3h-2.1v22.3h-7.8V76.5h7.8c9.3,0,13.2,5.3,13.2,15.3c0,5.3-1.4,10-4.3,12l5,25.6
		C399.6,129.4,391.8,129.4,391.8,129.4z M385.7,99.9c1.1,0,2.5-0.1,3.7-1.2c1.2-1,2.1-3,2.1-6.7s-0.9-5.8-2.1-6.8s-2.6-1.1-3.7-1.1
		V99.9z"/>
</g>
<g id="XMLID_27_">
</g>
<g id="XMLID_28_">
</g>
<g id="XMLID_29_">
</g>
<g id="XMLID_30_">
</g>
<g id="XMLID_31_">
</g>
<g id="XMLID_32_">
</g>
</svg>
